<svg width="89" height="12" viewBox="0 0 89 12" fill="none" xmlns="http://www.w3.org/2000/svg">
<path d="M0.0159766 11.3354L3.88598 0.835449H5.62598L9.46598 11.3354H7.78598L6.88598 8.77045H2.59598L1.69598 11.3354H0.0159766ZM3.04598 7.51045H6.43598L4.74098 2.72545L3.04598 7.51045ZM14.0294 11.5154C13.3094 11.5154 12.6744 11.3454 12.1244 11.0054C11.5744 10.6654 11.1444 10.2004 10.8344 9.61045C10.5244 9.02045 10.3694 8.35045 10.3694 7.60045C10.3694 6.85045 10.5244 6.18545 10.8344 5.60545C11.1444 5.01545 11.5744 4.55545 12.1244 4.22545C12.6844 3.88545 13.3244 3.71545 14.0444 3.71545C14.6344 3.71545 15.1494 3.83045 15.5894 4.06045C16.0394 4.29045 16.3894 4.61545 16.6394 5.03545V0.535449H18.2294V11.3354H16.8044L16.6394 10.1804C16.3994 10.5304 16.0694 10.8404 15.6494 11.1104C15.2294 11.3804 14.6894 11.5154 14.0294 11.5154ZM14.3144 10.1354C14.9944 10.1354 15.5494 9.90045 15.9794 9.43045C16.4194 8.96045 16.6394 8.35545 16.6394 7.61545C16.6394 6.86545 16.4194 6.26045 15.9794 5.80045C15.5494 5.33045 14.9944 5.09545 14.3144 5.09545C13.6344 5.09545 13.0744 5.33045 12.6344 5.80045C12.1944 6.26045 11.9744 6.86545 11.9744 7.61545C11.9744 8.10545 12.0744 8.54045 12.2744 8.92045C12.4744 9.30045 12.7494 9.60045 13.0994 9.82045C13.4594 10.0304 13.8644 10.1354 14.3144 10.1354ZM20.3841 11.3354V3.89545H21.8091L21.9441 5.30545C22.2041 4.81545 22.5641 4.43045 23.0241 4.15045C23.4941 3.86045 24.0591 3.71545 24.7191 3.71545V5.38045H24.2841C23.8441 5.38045 23.4491 5.45545 23.0991 5.60545C22.7591 5.74545 22.4841 5.99045 22.2741 6.34045C22.0741 6.68045 21.9741 7.15545 21.9741 7.76545V11.3354H20.3841ZM27.1323 2.48545C26.8323 2.48545 26.5823 2.39545 26.3823 2.21545C26.1923 2.02545 26.0973 1.79045 26.0973 1.51045C26.0973 1.23045 26.1923 1.00045 26.3823 0.820449C26.5823 0.630449 26.8323 0.535449 27.1323 0.535449C27.4323 0.535449 27.6773 0.630449 27.8673 0.820449C28.0673 1.00045 28.1673 1.23045 28.1673 1.51045C28.1673 1.79045 28.0673 2.02545 27.8673 2.21545C27.6773 2.39545 27.4323 2.48545 27.1323 2.48545ZM26.3373 11.3354V3.89545H27.9273V11.3354H26.3373ZM32.6963 11.5154C32.0663 11.5154 31.5463 11.4104 31.1363 11.2004C30.7263 10.9904 30.4213 10.7154 30.2213 10.3754C30.0213 10.0254 29.9213 9.64545 29.9213 9.23545C29.9213 8.51545 30.2013 7.94545 30.7613 7.52545C31.3213 7.10545 32.1213 6.89545 33.1613 6.89545H35.1113V6.76045C35.1113 6.18045 34.9513 5.74545 34.6313 5.45545C34.3213 5.16545 33.9163 5.02045 33.4163 5.02045C32.9763 5.02045 32.5913 5.13045 32.2613 5.35045C31.9413 5.56045 31.7463 5.87545 31.6763 6.29545H30.0863C30.1363 5.75545 30.3163 5.29545 30.6263 4.91545C30.9463 4.52545 31.3463 4.23045 31.8263 4.03045C32.3163 3.82045 32.8513 3.71545 33.4313 3.71545C34.4713 3.71545 35.2763 3.99045 35.8463 4.54045C36.4163 5.08045 36.7013 5.82045 36.7013 6.76045V11.3354H35.3213L35.1863 10.0604C34.9763 10.4704 34.6713 10.8154 34.2713 11.0954C33.8713 11.3754 33.3463 11.5154 32.6963 11.5154ZM33.0113 10.2254C33.4413 10.2254 33.8013 10.1254 34.0913 9.92545C34.3913 9.71545 34.6213 9.44045 34.7813 9.10045C34.9513 8.76045 35.0563 8.38545 35.0963 7.97545H33.3263C32.6963 7.97545 32.2463 8.08545 31.9763 8.30545C31.7163 8.52545 31.5863 8.80045 31.5863 9.13045C31.5863 9.47045 31.7113 9.74045 31.9613 9.94045C32.2213 10.1304 32.5713 10.2254 33.0113 10.2254ZM38.7052 11.3354V3.89545H40.1152L40.2352 5.20045C40.4652 4.74045 40.8002 4.38045 41.2402 4.12045C41.6902 3.85045 42.2052 3.71545 42.7852 3.71545C43.6852 3.71545 44.3902 3.99545 44.9002 4.55545C45.4202 5.11545 45.6802 5.95045 45.6802 7.06045V11.3354H44.1052V7.22545C44.1052 5.78545 43.5152 5.06545 42.3352 5.06545C41.7452 5.06545 41.2552 5.27545 40.8652 5.69545C40.4852 6.11545 40.2952 6.71545 40.2952 7.49545V11.3354H38.7052ZM50.2229 11.5154C49.5929 11.5154 49.0729 11.4104 48.6629 11.2004C48.2529 10.9904 47.9479 10.7154 47.7479 10.3754C47.5479 10.0254 47.4479 9.64545 47.4479 9.23545C47.4479 8.51545 47.7279 7.94545 48.2879 7.52545C48.8479 7.10545 49.6479 6.89545 50.6879 6.89545H52.6379V6.76045C52.6379 6.18045 52.4779 5.74545 52.1579 5.45545C51.8479 5.16545 51.4429 5.02045 50.9429 5.02045C50.5029 5.02045 50.1179 5.13045 49.7879 5.35045C49.4679 5.56045 49.2729 5.87545 49.2029 6.29545H47.6129C47.6629 5.75545 47.8429 5.29545 48.1529 4.91545C48.4729 4.52545 48.8729 4.23045 49.3529 4.03045C49.8429 3.82045 50.3779 3.71545 50.9579 3.71545C51.9979 3.71545 52.8029 3.99045 53.3729 4.54045C53.9429 5.08045 54.2279 5.82045 54.2279 6.76045V11.3354H52.8479L52.7129 10.0604C52.5029 10.4704 52.1979 10.8154 51.7979 11.0954C51.3979 11.3754 50.8729 11.5154 50.2229 11.5154ZM50.5379 10.2254C50.9679 10.2254 51.3279 10.1254 51.6179 9.92545C51.9179 9.71545 52.1479 9.44045 52.3079 9.10045C52.4779 8.76045 52.5829 8.38545 52.6229 7.97545H50.8529C50.2229 7.97545 49.7729 8.08545 49.5029 8.30545C49.2429 8.52545 49.1129 8.80045 49.1129 9.13045C49.1129 9.47045 49.2379 9.74045 49.4879 9.94045C49.7479 10.1304 50.0979 10.2254 50.5379 10.2254ZM62.6811 11.3354V2.12545H59.5761V0.835449H67.3611V2.12545H64.2711V11.3354H62.6811ZM71.0713 11.5154C70.3613 11.5154 69.7213 11.3554 69.1513 11.0354C68.5913 10.7054 68.1463 10.2504 67.8163 9.67045C67.4863 9.08045 67.3213 8.39545 67.3213 7.61545C67.3213 6.83545 67.4863 6.15545 67.8163 5.57545C68.1563 4.98545 68.6113 4.53045 69.1813 4.21045C69.7513 3.88045 70.3863 3.71545 71.0863 3.71545C71.7963 3.71545 72.4313 3.88045 72.9913 4.21045C73.5613 4.53045 74.0113 4.98545 74.3413 5.57545C74.6813 6.15545 74.8513 6.83545 74.8513 7.61545C74.8513 8.39545 74.6813 9.08045 74.3413 9.67045C74.0113 10.2504 73.5613 10.7054 72.9913 11.0354C72.4213 11.3554 71.7813 11.5154 71.0713 11.5154ZM71.0713 10.1504C71.4513 10.1504 71.8013 10.0554 72.1213 9.86545C72.4513 9.67545 72.7163 9.39545 72.9163 9.02545C73.1163 8.64545 73.2163 8.17545 73.2163 7.61545C73.2163 7.05545 73.1163 6.59045 72.9163 6.22045C72.7263 5.84045 72.4663 5.55545 72.1363 5.36545C71.8163 5.17545 71.4663 5.08045 71.0863 5.08045C70.7063 5.08045 70.3513 5.17545 70.0213 5.36545C69.7013 5.55545 69.4413 5.84045 69.2413 6.22045C69.0413 6.59045 68.9413 7.05545 68.9413 7.61545C68.9413 8.17545 69.0413 8.64545 69.2413 9.02545C69.4413 9.39545 69.7013 9.67545 70.0213 9.86545C70.3413 10.0554 70.6913 10.1504 71.0713 10.1504ZM76.7208 11.3354V3.89545H78.1308L78.2658 4.94545C78.5058 4.56545 78.8208 4.26545 79.2108 4.04545C79.6108 3.82545 80.0708 3.71545 80.5908 3.71545C81.7708 3.71545 82.5908 4.18045 83.0508 5.11045C83.3208 4.68045 83.6808 4.34045 84.1308 4.09045C84.5908 3.84045 85.0858 3.71545 85.6158 3.71545C86.5458 3.71545 87.2758 3.99545 87.8058 4.55545C88.3358 5.11545 88.6008 5.95045 88.6008 7.06045V11.3354H87.0108V7.22545C87.0108 5.78545 86.4608 5.06545 85.3608 5.06545C84.8008 5.06545 84.3408 5.27545 83.9808 5.69545C83.6308 6.11545 83.4558 6.71545 83.4558 7.49545V11.3354H81.8658V7.22545C81.8658 5.78545 81.3108 5.06545 80.2008 5.06545C79.6508 5.06545 79.1958 5.27545 78.8358 5.69545C78.4858 6.11545 78.3108 6.71545 78.3108 7.49545V11.3354H76.7208Z" fill="#B3B3B3"/>
</svg>
