<svg width="95" height="12" viewBox="0 0 95 12" fill="none" xmlns="http://www.w3.org/2000/svg">
<path d="M0.909727 11.3354V0.835449H4.86973C5.95973 0.835449 6.78473 1.09045 7.34473 1.60045C7.90473 2.11045 8.18473 2.75045 8.18473 3.52045C8.18473 4.19045 8.00473 4.72545 7.64473 5.12545C7.28473 5.51545 6.84973 5.78045 6.33973 5.92045C6.73973 6.00045 7.09473 6.16045 7.40473 6.40045C7.72473 6.64045 7.97473 6.94045 8.15473 7.30045C8.33473 7.66045 8.42473 8.05045 8.42473 8.47045C8.42473 9.01045 8.28973 9.50045 8.01973 9.94045C7.75973 10.3704 7.37473 10.7104 6.86473 10.9604C6.35473 11.2104 5.72973 11.3354 4.98973 11.3354H0.909727ZM2.49973 5.33545H4.67473C5.28473 5.33545 5.74973 5.19545 6.06973 4.91545C6.38973 4.62545 6.54973 4.23045 6.54973 3.73045C6.54973 3.24045 6.38973 2.85045 6.06973 2.56045C5.75973 2.27045 5.28473 2.12545 4.64473 2.12545H2.49973V5.33545ZM2.49973 10.0304H4.77973C5.41973 10.0304 5.91473 9.88045 6.26473 9.58045C6.62473 9.28045 6.80473 8.86045 6.80473 8.32045C6.80473 7.78045 6.61973 7.35545 6.24973 7.04545C5.87973 6.72545 5.37973 6.56545 4.74973 6.56545H2.49973V10.0304ZM13.7375 11.5154C13.0075 11.5154 12.3575 11.3554 11.7875 11.0354C11.2275 10.7054 10.7875 10.2504 10.4675 9.67045C10.1475 9.09045 9.98754 8.41545 9.98754 7.64545C9.98754 6.86545 10.1425 6.18045 10.4525 5.59045C10.7725 5.00045 11.2125 4.54045 11.7725 4.21045C12.3425 3.88045 13.0025 3.71545 13.7525 3.71545C14.4825 3.71545 15.1175 3.88045 15.6575 4.21045C16.1975 4.53045 16.6175 4.96045 16.9175 5.50045C17.2175 6.04045 17.3675 6.63545 17.3675 7.28545C17.3675 7.38545 17.3625 7.49545 17.3525 7.61545C17.3525 7.72545 17.3475 7.85045 17.3375 7.99045H11.5475C11.5975 8.71045 11.8325 9.26045 12.2525 9.64045C12.6825 10.0104 13.1775 10.1954 13.7375 10.1954C14.1875 10.1954 14.5625 10.0954 14.8625 9.89545C15.1725 9.68545 15.4025 9.40545 15.5525 9.05545H17.1425C16.9425 9.75545 16.5425 10.3404 15.9425 10.8104C15.3525 11.2804 14.6175 11.5154 13.7375 11.5154ZM13.7375 5.02045C13.2075 5.02045 12.7375 5.18045 12.3275 5.50045C11.9175 5.81045 11.6675 6.28045 11.5775 6.91045H15.7775C15.7475 6.33045 15.5425 5.87045 15.1625 5.53045C14.7825 5.19045 14.3075 5.02045 13.7375 5.02045ZM19.1673 11.3354V3.89545H20.5773L20.6973 5.20045C20.9273 4.74045 21.2623 4.38045 21.7023 4.12045C22.1523 3.85045 22.6673 3.71545 23.2473 3.71545C24.1473 3.71545 24.8523 3.99545 25.3623 4.55545C25.8823 5.11545 26.1423 5.95045 26.1423 7.06045V11.3354H24.5673V7.22545C24.5673 5.78545 23.9773 5.06545 22.7973 5.06545C22.2073 5.06545 21.7173 5.27545 21.3273 5.69545C20.9473 6.11545 20.7573 6.71545 20.7573 7.49545V11.3354H19.1673ZM32.1543 11.3354V0.835449H33.7443V11.3354H32.1543ZM35.965 11.3354V3.89545H37.375L37.495 5.20045C37.725 4.74045 38.06 4.38045 38.5 4.12045C38.95 3.85045 39.465 3.71545 40.045 3.71545C40.945 3.71545 41.65 3.99545 42.16 4.55545C42.68 5.11545 42.94 5.95045 42.94 7.06045V11.3354H41.365V7.22545C41.365 5.78545 40.775 5.06545 39.595 5.06545C39.005 5.06545 38.515 5.27545 38.125 5.69545C37.745 6.11545 37.555 6.71545 37.555 7.49545V11.3354H35.965ZM47.4826 11.5154C46.8526 11.5154 46.3326 11.4104 45.9226 11.2004C45.5126 10.9904 45.2076 10.7154 45.0076 10.3754C44.8076 10.0254 44.7076 9.64545 44.7076 9.23545C44.7076 8.51545 44.9876 7.94545 45.5476 7.52545C46.1076 7.10545 46.9076 6.89545 47.9476 6.89545H49.8976V6.76045C49.8976 6.18045 49.7376 5.74545 49.4176 5.45545C49.1076 5.16545 48.7026 5.02045 48.2026 5.02045C47.7626 5.02045 47.3776 5.13045 47.0476 5.35045C46.7276 5.56045 46.5326 5.87545 46.4626 6.29545H44.8726C44.9226 5.75545 45.1026 5.29545 45.4126 4.91545C45.7326 4.52545 46.1326 4.23045 46.6126 4.03045C47.1026 3.82045 47.6376 3.71545 48.2176 3.71545C49.2576 3.71545 50.0626 3.99045 50.6326 4.54045C51.2026 5.08045 51.4876 5.82045 51.4876 6.76045V11.3354H50.1076L49.9726 10.0604C49.7626 10.4704 49.4576 10.8154 49.0576 11.0954C48.6576 11.3754 48.1326 11.5154 47.4826 11.5154ZM47.7976 10.2254C48.2276 10.2254 48.5876 10.1254 48.8776 9.92545C49.1776 9.71545 49.4076 9.44045 49.5676 9.10045C49.7376 8.76045 49.8426 8.38545 49.8826 7.97545H48.1126C47.4826 7.97545 47.0326 8.08545 46.7626 8.30545C46.5026 8.52545 46.3726 8.80045 46.3726 9.13045C46.3726 9.47045 46.4976 9.74045 46.7476 9.94045C47.0076 10.1304 47.3576 10.2254 47.7976 10.2254ZM60.9458 11.5154C60.1758 11.5154 59.5008 11.3804 58.9208 11.1104C58.3408 10.8404 57.8858 10.4554 57.5558 9.95545C57.2358 9.45545 57.0708 8.86045 57.0608 8.17045H58.7408C58.7508 8.73045 58.9458 9.20545 59.3258 9.59545C59.7058 9.98545 60.2408 10.1804 60.9308 10.1804C61.5408 10.1804 62.0158 10.0354 62.3558 9.74545C62.7058 9.44545 62.8808 9.06545 62.8808 8.60545C62.8808 8.23545 62.7958 7.93545 62.6258 7.70545C62.4658 7.47545 62.2408 7.28545 61.9508 7.13545C61.6708 6.98545 61.3458 6.85045 60.9758 6.73045C60.6058 6.61045 60.2158 6.48045 59.8058 6.34045C58.9958 6.07045 58.3858 5.72045 57.9758 5.29045C57.5758 4.86045 57.3758 4.29545 57.3758 3.59545C57.3658 3.00545 57.5008 2.49045 57.7808 2.05045C58.0708 1.61045 58.4708 1.27045 58.9808 1.03045C59.5008 0.780449 60.1058 0.655449 60.7958 0.655449C61.4758 0.655449 62.0708 0.780449 62.5808 1.03045C63.1008 1.28045 63.5058 1.63045 63.7958 2.08045C64.0858 2.52045 64.2358 3.03545 64.2458 3.62545H62.5658C62.5658 3.35545 62.4958 3.10045 62.3558 2.86045C62.2158 2.61045 62.0108 2.40545 61.7408 2.24545C61.4708 2.08545 61.1408 2.00545 60.7508 2.00545C60.2508 1.99545 59.8358 2.12045 59.5058 2.38045C59.1858 2.64045 59.0258 3.00045 59.0258 3.46045C59.0258 3.87045 59.1458 4.18545 59.3858 4.40545C59.6258 4.62545 59.9558 4.81045 60.3758 4.96045C60.7958 5.10045 61.2758 5.26545 61.8158 5.45545C62.3358 5.62545 62.8008 5.83045 63.2108 6.07045C63.6208 6.31045 63.9458 6.62545 64.1858 7.01545C64.4358 7.40545 64.5608 7.90045 64.5608 8.50045C64.5608 9.03045 64.4258 9.52545 64.1558 9.98545C63.8858 10.4354 63.4808 10.8054 62.9408 11.0954C62.4008 11.3754 61.7358 11.5154 60.9458 11.5154ZM69.9142 11.5154C69.1842 11.5154 68.5292 11.3504 67.9492 11.0204C67.3792 10.6904 66.9292 10.2354 66.5992 9.65545C66.2792 9.06545 66.1192 8.38545 66.1192 7.61545C66.1192 6.84545 66.2792 6.17045 66.5992 5.59045C66.9292 5.00045 67.3792 4.54045 67.9492 4.21045C68.5292 3.88045 69.1842 3.71545 69.9142 3.71545C70.8342 3.71545 71.6042 3.95545 72.2242 4.43545C72.8542 4.91545 73.2592 5.56545 73.4392 6.38545H71.7742C71.6742 5.97545 71.4542 5.65545 71.1142 5.42545C70.7742 5.19545 70.3742 5.08045 69.9142 5.08045C69.5242 5.08045 69.1642 5.18045 68.8342 5.38045C68.5042 5.57045 68.2392 5.85545 68.0392 6.23545C67.8392 6.60545 67.7392 7.06545 67.7392 7.61545C67.7392 8.16545 67.8392 8.63045 68.0392 9.01045C68.2392 9.38045 68.5042 9.66545 68.8342 9.86545C69.1642 10.0654 69.5242 10.1654 69.9142 10.1654C70.3742 10.1654 70.7742 10.0504 71.1142 9.82045C71.4542 9.59045 71.6742 9.26545 71.7742 8.84545H73.4392C73.2692 9.64545 72.8692 10.2904 72.2392 10.7804C71.6092 11.2704 70.8342 11.5154 69.9142 11.5154ZM78.7936 11.5154C78.0836 11.5154 77.4436 11.3554 76.8736 11.0354C76.3136 10.7054 75.8686 10.2504 75.5386 9.67045C75.2086 9.08045 75.0436 8.39545 75.0436 7.61545C75.0436 6.83545 75.2086 6.15545 75.5386 5.57545C75.8786 4.98545 76.3336 4.53045 76.9036 4.21045C77.4736 3.88045 78.1086 3.71545 78.8086 3.71545C79.5186 3.71545 80.1536 3.88045 80.7136 4.21045C81.2836 4.53045 81.7336 4.98545 82.0636 5.57545C82.4036 6.15545 82.5736 6.83545 82.5736 7.61545C82.5736 8.39545 82.4036 9.08045 82.0636 9.67045C81.7336 10.2504 81.2836 10.7054 80.7136 11.0354C80.1436 11.3554 79.5036 11.5154 78.7936 11.5154ZM78.7936 10.1504C79.1736 10.1504 79.5236 10.0554 79.8436 9.86545C80.1736 9.67545 80.4386 9.39545 80.6386 9.02545C80.8386 8.64545 80.9386 8.17545 80.9386 7.61545C80.9386 7.05545 80.8386 6.59045 80.6386 6.22045C80.4486 5.84045 80.1886 5.55545 79.8586 5.36545C79.5386 5.17545 79.1886 5.08045 78.8086 5.08045C78.4286 5.08045 78.0736 5.17545 77.7436 5.36545C77.4236 5.55545 77.1636 5.84045 76.9636 6.22045C76.7636 6.59045 76.6636 7.05545 76.6636 7.61545C76.6636 8.17545 76.7636 8.64545 76.9636 9.02545C77.1636 9.39545 77.4236 9.67545 77.7436 9.86545C78.0636 10.0554 78.4136 10.1504 78.7936 10.1504ZM87.2701 11.3354C86.5401 11.3354 85.9601 11.1604 85.5301 10.8104C85.1001 10.4504 84.8851 9.81545 84.8851 8.90545V5.23045H83.6101V3.89545H84.8851L85.0801 2.00545H86.4751V3.89545H88.5751V5.23045H86.4751V8.90545C86.4751 9.31545 86.5601 9.60045 86.7301 9.76045C86.9101 9.91045 87.2151 9.98545 87.6451 9.98545H88.5001V11.3354H87.2701ZM93.4846 11.3354C92.7546 11.3354 92.1746 11.1604 91.7446 10.8104C91.3146 10.4504 91.0996 9.81545 91.0996 8.90545V5.23045H89.8246V3.89545H91.0996L91.2946 2.00545H92.6896V3.89545H94.7896V5.23045H92.6896V8.90545C92.6896 9.31545 92.7746 9.60045 92.9446 9.76045C93.1246 9.91045 93.4296 9.98545 93.8596 9.98545H94.7146V11.3354H93.4846Z" fill="#B3B3B3"/>
</svg>
