<svg width="51" height="19" viewBox="0 0 51 19" fill="none" xmlns="http://www.w3.org/2000/svg">
<path d="M0.36 16V2H2.92V7.66L8.1 2H11.26L6.1 7.56L11.4 16H8.26L4.26 9.52L2.92 10.98V16H0.36ZM11.853 18.22L16.853 0.46H19.353L14.333 18.22H11.853ZM25.1366 16V2H29.9166C31.5566 2 32.9032 2.29333 33.9566 2.88C35.0232 3.45333 35.8099 4.26667 36.3166 5.32C36.8366 6.36 37.0966 7.58667 37.0966 9C37.0966 10.4133 36.8366 11.6467 36.3166 12.7C35.8099 13.74 35.0232 14.5533 33.9566 15.14C32.9032 15.7133 31.5566 16 29.9166 16H25.1366ZM27.6966 13.8H29.7966C30.9699 13.8 31.8966 13.6133 32.5766 13.24C33.2566 12.8533 33.7432 12.3067 34.0366 11.6C34.3299 10.88 34.4766 10.0133 34.4766 9C34.4766 8 34.3299 7.14 34.0366 6.42C33.7432 5.7 33.2566 5.14667 32.5766 4.76C31.8966 4.37333 30.9699 4.18 29.7966 4.18H27.6966V13.8ZM37.1569 16L42.2769 2H45.1569L50.2769 16H47.5569L46.4369 12.76H40.9769L39.8369 16H37.1569ZM41.6769 10.76H45.7369L43.6969 4.94L41.6769 10.76Z" fill="white"/>
</svg>
