<svg width="170" height="42" viewBox="0 0 170 42" fill="none" xmlns="http://www.w3.org/2000/svg">
<path d="M0.36 16V2H5.14C6.78 2 8.12667 2.29333 9.18 2.88C10.2467 3.45333 11.0333 4.26667 11.54 5.32C12.06 6.36 12.32 7.58667 12.32 9C12.32 10.4133 12.06 11.6467 11.54 12.7C11.0333 13.74 10.2467 14.5533 9.18 15.14C8.12667 15.7133 6.78 16 5.14 16H0.36ZM2.92 13.8H5.02C6.19333 13.8 7.12 13.6133 7.8 13.24C8.48 12.8533 8.96667 12.3067 9.26 11.6C9.55333 10.88 9.7 10.0133 9.7 9C9.7 8 9.55333 7.14 9.26 6.42C8.96667 5.7 8.48 5.14667 7.8 4.76C7.12 4.37333 6.19333 4.18 5.02 4.18H2.92V13.8ZM17.5388 16.24C16.6854 16.24 15.9854 16.1067 15.4388 15.84C14.8921 15.56 14.4854 15.1933 14.2188 14.74C13.9521 14.2867 13.8188 13.7867 13.8188 13.24C13.8188 12.32 14.1788 11.5733 14.8988 11C15.6188 10.4267 16.6988 10.14 18.1388 10.14H20.6588V9.9C20.6588 9.22 20.4654 8.72 20.0788 8.4C19.6921 8.08 19.2121 7.92 18.6388 7.92C18.1188 7.92 17.6654 8.04667 17.2788 8.3C16.8921 8.54 16.6521 8.9 16.5588 9.38H14.0588C14.1254 8.66 14.3654 8.03333 14.7788 7.5C15.2054 6.96667 15.7521 6.56 16.4188 6.28C17.0854 5.98667 17.8321 5.84 18.6588 5.84C20.0721 5.84 21.1854 6.19333 21.9988 6.9C22.8121 7.60667 23.2188 8.60667 23.2188 9.9V16H21.0388L20.7988 14.4C20.5054 14.9333 20.0921 15.3733 19.5588 15.72C19.0388 16.0667 18.3654 16.24 17.5388 16.24ZM18.1188 14.24C18.8521 14.24 19.4188 14 19.8188 13.52C20.2321 13.04 20.4921 12.4467 20.5988 11.74H18.4188C17.7388 11.74 17.2521 11.8667 16.9588 12.12C16.6654 12.36 16.5188 12.66 16.5188 13.02C16.5188 13.4067 16.6654 13.7067 16.9588 13.92C17.2521 14.1333 17.6388 14.24 18.1188 14.24ZM25.2617 16V6.08H27.5217L27.7217 7.76C28.0284 7.17333 28.4684 6.70667 29.0417 6.36C29.6284 6.01333 30.3151 5.84 31.1017 5.84C32.3284 5.84 33.2817 6.22667 33.9617 7C34.6417 7.77333 34.9817 8.90667 34.9817 10.4V16H32.4217V10.64C32.4217 9.78667 32.2484 9.13333 31.9017 8.68C31.5551 8.22667 31.0151 8 30.2817 8C29.5617 8 28.9684 8.25333 28.5017 8.76C28.0484 9.26667 27.8217 9.97333 27.8217 10.88V16H25.2617ZM41.8897 16.24C40.8764 16.24 39.983 16.02 39.2097 15.58C38.4364 15.14 37.823 14.5267 37.3697 13.74C36.9297 12.9533 36.7097 12.0533 36.7097 11.04C36.7097 10.0267 36.9297 9.12667 37.3697 8.34C37.823 7.55333 38.4364 6.94 39.2097 6.5C39.983 6.06 40.8764 5.84 41.8897 5.84C43.1564 5.84 44.223 6.17333 45.0897 6.84C45.9564 7.49333 46.5097 8.4 46.7497 9.56H44.0497C43.9164 9.08 43.6497 8.70667 43.2497 8.44C42.863 8.16 42.403 8.02 41.8697 8.02C41.163 8.02 40.563 8.28667 40.0697 8.82C39.5764 9.35333 39.3297 10.0933 39.3297 11.04C39.3297 11.9867 39.5764 12.7267 40.0697 13.26C40.563 13.7933 41.163 14.06 41.8697 14.06C42.403 14.06 42.863 13.9267 43.2497 13.66C43.6497 13.3933 43.9164 13.0133 44.0497 12.52H46.7497C46.5097 13.64 45.9564 14.54 45.0897 15.22C44.223 15.9 43.1564 16.24 41.8897 16.24ZM53.4419 16.24C52.4419 16.24 51.5552 16.0267 50.7819 15.6C50.0085 15.1733 49.4019 14.5733 48.9619 13.8C48.5219 13.0267 48.3019 12.1333 48.3019 11.12C48.3019 10.0933 48.5152 9.18 48.9419 8.38C49.3819 7.58 49.9819 6.96 50.7419 6.52C51.5152 6.06667 52.4219 5.84 53.4619 5.84C54.4352 5.84 55.2952 6.05333 56.0419 6.48C56.7885 6.90667 57.3685 7.49333 57.7819 8.24C58.2085 8.97333 58.4219 9.79333 58.4219 10.7C58.4219 10.8467 58.4152 11 58.4019 11.16C58.4019 11.32 58.3952 11.4867 58.3819 11.66H50.8419C50.8952 12.4333 51.1619 13.04 51.6419 13.48C52.1352 13.92 52.7285 14.14 53.4219 14.14C53.9419 14.14 54.3752 14.0267 54.7219 13.8C55.0819 13.56 55.3485 13.2533 55.5219 12.88H58.1219C57.9352 13.5067 57.6219 14.08 57.1819 14.6C56.7552 15.1067 56.2219 15.5067 55.5819 15.8C54.9552 16.0933 54.2419 16.24 53.4419 16.24ZM53.4619 7.92C52.8352 7.92 52.2819 8.1 51.8019 8.46C51.3219 8.80667 51.0152 9.34 50.8819 10.06H55.8219C55.7819 9.40667 55.5419 8.88667 55.1019 8.5C54.6619 8.11333 54.1152 7.92 53.4619 7.92ZM63.7006 18.22L68.7006 0.46H71.2006L66.1806 18.22H63.7006ZM76.9842 16V2H86.1242V4.06H79.5442V7.9H85.5242V9.9H79.5442V13.94H86.1242V16H76.9842ZM88.0867 16V1.6H90.6467V16H88.0867ZM97.6825 16.24C96.6825 16.24 95.7958 16.0267 95.0225 15.6C94.2492 15.1733 93.6425 14.5733 93.2025 13.8C92.7625 13.0267 92.5425 12.1333 92.5425 11.12C92.5425 10.0933 92.7558 9.18 93.1825 8.38C93.6225 7.58 94.2225 6.96 94.9825 6.52C95.7558 6.06667 96.6625 5.84 97.7025 5.84C98.6758 5.84 99.5358 6.05333 100.283 6.48C101.029 6.90667 101.609 7.49333 102.023 8.24C102.449 8.97333 102.663 9.79333 102.663 10.7C102.663 10.8467 102.656 11 102.643 11.16C102.643 11.32 102.636 11.4867 102.623 11.66H95.0825C95.1358 12.4333 95.4025 13.04 95.8825 13.48C96.3758 13.92 96.9692 14.14 97.6625 14.14C98.1825 14.14 98.6158 14.0267 98.9625 13.8C99.3225 13.56 99.5892 13.2533 99.7625 12.88H102.363C102.176 13.5067 101.863 14.08 101.423 14.6C100.996 15.1067 100.463 15.5067 99.8225 15.8C99.1958 16.0933 98.4825 16.24 97.6825 16.24ZM97.7025 7.92C97.0758 7.92 96.5225 8.1 96.0425 8.46C95.5625 8.80667 95.2558 9.34 95.1225 10.06H100.063C100.023 9.40667 99.7825 8.88667 99.3425 8.5C98.9025 8.11333 98.3558 7.92 97.7025 7.92ZM109.276 16.24C108.262 16.24 107.369 16.02 106.596 15.58C105.822 15.14 105.209 14.5267 104.756 13.74C104.316 12.9533 104.096 12.0533 104.096 11.04C104.096 10.0267 104.316 9.12667 104.756 8.34C105.209 7.55333 105.822 6.94 106.596 6.5C107.369 6.06 108.262 5.84 109.276 5.84C110.542 5.84 111.609 6.17333 112.476 6.84C113.342 7.49333 113.896 8.4 114.136 9.56H111.436C111.302 9.08 111.036 8.70667 110.636 8.44C110.249 8.16 109.789 8.02 109.256 8.02C108.549 8.02 107.949 8.28667 107.456 8.82C106.962 9.35333 106.716 10.0933 106.716 11.04C106.716 11.9867 106.962 12.7267 107.456 13.26C107.949 13.7933 108.549 14.06 109.256 14.06C109.789 14.06 110.249 13.9267 110.636 13.66C111.036 13.3933 111.302 13.0133 111.436 12.52H114.136C113.896 13.64 113.342 14.54 112.476 15.22C111.609 15.9 110.542 16.24 109.276 16.24ZM120.291 16C119.251 16 118.418 15.7467 117.791 15.24C117.164 14.7333 116.851 13.8333 116.851 12.54V8.22H115.151V6.08H116.851L117.151 3.42H119.411V6.08H122.091V8.22H119.411V12.56C119.411 13.04 119.511 13.3733 119.711 13.56C119.924 13.7333 120.284 13.82 120.791 13.82H122.031V16H120.291ZM123.889 16V6.08H126.169L126.409 7.94C126.769 7.3 127.256 6.79333 127.869 6.42C128.496 6.03333 129.229 5.84 130.069 5.84V8.54H129.349C128.789 8.54 128.289 8.62667 127.849 8.8C127.409 8.97333 127.062 9.27333 126.809 9.7C126.569 10.1267 126.449 10.72 126.449 11.48V16H123.889ZM136.003 16.24C135.043 16.24 134.176 16.02 133.403 15.58C132.643 15.14 132.036 14.5333 131.583 13.76C131.143 12.9733 130.923 12.0667 130.923 11.04C130.923 10.0133 131.15 9.11333 131.603 8.34C132.056 7.55333 132.663 6.94 133.423 6.5C134.196 6.06 135.063 5.84 136.023 5.84C136.97 5.84 137.823 6.06 138.583 6.5C139.356 6.94 139.963 7.55333 140.403 8.34C140.856 9.11333 141.083 10.0133 141.083 11.04C141.083 12.0667 140.856 12.9733 140.403 13.76C139.963 14.5333 139.356 15.14 138.583 15.58C137.81 16.02 136.95 16.24 136.003 16.24ZM136.003 14.02C136.67 14.02 137.25 13.7733 137.743 13.28C138.236 12.7733 138.483 12.0267 138.483 11.04C138.483 10.0533 138.236 9.31333 137.743 8.82C137.25 8.31333 136.676 8.06 136.023 8.06C135.343 8.06 134.756 8.31333 134.263 8.82C133.783 9.31333 133.543 10.0533 133.543 11.04C133.543 12.0267 133.783 12.7733 134.263 13.28C134.756 13.7733 135.336 14.02 136.003 14.02ZM142.972 16V6.08H145.232L145.432 7.76C145.739 7.17333 146.179 6.70667 146.752 6.36C147.339 6.01333 148.025 5.84 148.812 5.84C150.039 5.84 150.992 6.22667 151.672 7C152.352 7.77333 152.692 8.90667 152.692 10.4V16H150.132V10.64C150.132 9.78667 149.959 9.13333 149.612 8.68C149.265 8.22667 148.725 8 147.992 8C147.272 8 146.679 8.25333 146.212 8.76C145.759 9.26667 145.532 9.97333 145.532 10.88V16H142.972ZM156.12 4.54C155.653 4.54 155.267 4.4 154.96 4.12C154.667 3.84 154.52 3.48667 154.52 3.06C154.52 2.63333 154.667 2.28667 154.96 2.02C155.267 1.74 155.653 1.6 156.12 1.6C156.587 1.6 156.967 1.74 157.26 2.02C157.567 2.28667 157.72 2.63333 157.72 3.06C157.72 3.48667 157.567 3.84 157.26 4.12C156.967 4.4 156.587 4.54 156.12 4.54ZM154.84 16V6.08H157.4V16H154.84ZM164.532 16.24C163.519 16.24 162.625 16.02 161.852 15.58C161.079 15.14 160.465 14.5267 160.012 13.74C159.572 12.9533 159.352 12.0533 159.352 11.04C159.352 10.0267 159.572 9.12667 160.012 8.34C160.465 7.55333 161.079 6.94 161.852 6.5C162.625 6.06 163.519 5.84 164.532 5.84C165.799 5.84 166.865 6.17333 167.732 6.84C168.599 7.49333 169.152 8.4 169.392 9.56H166.692C166.559 9.08 166.292 8.70667 165.892 8.44C165.505 8.16 165.045 8.02 164.512 8.02C163.805 8.02 163.205 8.28667 162.712 8.82C162.219 9.35333 161.972 10.0933 161.972 11.04C161.972 11.9867 162.219 12.7267 162.712 13.26C163.205 13.7933 163.805 14.06 164.512 14.06C165.045 14.06 165.505 13.9267 165.892 13.66C166.292 13.3933 166.559 13.0133 166.692 12.52H169.392C169.152 13.64 168.599 14.54 167.732 15.22C166.865 15.9 165.799 16.24 164.532 16.24ZM0.36 42V28H3.4L7.86 36.88L12.26 28H15.3V42H12.74V32.34L8.84 40H6.82L2.92 32.34V42H0.36ZM18.9363 30.54C18.4696 30.54 18.0829 30.4 17.7763 30.12C17.4829 29.84 17.3363 29.4867 17.3363 29.06C17.3363 28.6333 17.4829 28.2867 17.7763 28.02C18.0829 27.74 18.4696 27.6 18.9363 27.6C19.4029 27.6 19.7829 27.74 20.0763 28.02C20.3829 28.2867 20.5363 28.6333 20.5363 29.06C20.5363 29.4867 20.3829 29.84 20.0763 30.12C19.7829 30.4 19.4029 30.54 18.9363 30.54ZM17.6563 42V32.08H20.2163V42H17.6563ZM21.5483 42L25.1483 37.04L21.5483 32.08H24.2883L26.8083 35.6L29.3083 32.08H32.0683L28.4483 37.04L32.0683 42H29.3083L26.8083 38.48L24.2883 42H21.5483Z" fill="white"/>
</svg>
