<svg width="247" height="37" viewBox="0 0 247 37" fill="none" xmlns="http://www.w3.org/2000/svg">
<path d="M13.212 28.456C10.704 28.456 8.51267 27.886 6.638 26.746C4.76333 25.606 3.30667 24.0227 2.268 21.996C1.22933 19.944 0.71 17.5627 0.71 14.852C0.71 12.116 1.242 9.70933 2.306 7.632C3.39533 5.52933 4.928 3.89533 6.904 2.73C8.90533 1.53933 11.274 0.944 14.01 0.944C17.126 0.944 19.71 1.69133 21.762 3.186C23.814 4.68066 25.144 6.74533 25.752 9.38H20.318C19.9127 8.13867 19.178 7.176 18.114 6.492C17.05 5.78267 15.682 5.428 14.01 5.428C11.35 5.428 9.298 6.27667 7.854 7.974C6.41 9.646 5.688 11.9513 5.688 14.89C5.688 17.8287 6.39733 20.1087 7.816 21.73C9.26 23.326 11.2107 24.124 13.668 24.124C16.0747 24.124 17.886 23.478 19.102 22.186C20.3433 20.8687 21.0907 19.146 21.344 17.018H14.618V13.37H26.246V28H21.762L21.382 24.504C20.5207 25.7707 19.444 26.746 18.152 27.43C16.86 28.114 15.2133 28.456 13.212 28.456ZM38.7646 28.456C36.9406 28.456 35.294 28.038 33.8246 27.202C32.3806 26.366 31.228 25.2133 30.3666 23.744C29.5306 22.2493 29.1126 20.5267 29.1126 18.576C29.1126 16.6253 29.5433 14.9153 30.4046 13.446C31.266 11.9513 32.4186 10.786 33.8626 9.95C35.332 9.114 36.9786 8.696 38.8026 8.696C40.6013 8.696 42.2226 9.114 43.6666 9.95C45.136 10.786 46.2886 11.9513 47.1246 13.446C47.986 14.9153 48.4166 16.6253 48.4166 18.576C48.4166 20.5267 47.986 22.2493 47.1246 23.744C46.2886 25.2133 45.136 26.366 43.6666 27.202C42.1973 28.038 40.5633 28.456 38.7646 28.456ZM38.7646 24.238C40.0313 24.238 41.1333 23.7693 42.0706 22.832C43.008 21.8693 43.4766 20.4507 43.4766 18.576C43.4766 16.7013 43.008 15.2953 42.0706 14.358C41.1333 13.3953 40.044 12.914 38.8026 12.914C37.5106 12.914 36.396 13.3953 35.4586 14.358C34.5466 15.2953 34.0906 16.7013 34.0906 18.576C34.0906 20.4507 34.5466 21.8693 35.4586 22.832C36.396 23.7693 37.498 24.238 38.7646 24.238ZM60.6695 28.456C58.8455 28.456 57.1989 28.038 55.7295 27.202C54.2855 26.366 53.1329 25.2133 52.2715 23.744C51.4355 22.2493 51.0175 20.5267 51.0175 18.576C51.0175 16.6253 51.4482 14.9153 52.3095 13.446C53.1709 11.9513 54.3235 10.786 55.7675 9.95C57.2369 9.114 58.8835 8.696 60.7075 8.696C62.5062 8.696 64.1275 9.114 65.5715 9.95C67.0409 10.786 68.1935 11.9513 69.0295 13.446C69.8909 14.9153 70.3215 16.6253 70.3215 18.576C70.3215 20.5267 69.8909 22.2493 69.0295 23.744C68.1935 25.2133 67.0409 26.366 65.5715 27.202C64.1022 28.038 62.4682 28.456 60.6695 28.456ZM60.6695 24.238C61.9362 24.238 63.0382 23.7693 63.9755 22.832C64.9129 21.8693 65.3815 20.4507 65.3815 18.576C65.3815 16.7013 64.9129 15.2953 63.9755 14.358C63.0382 13.3953 61.9489 12.914 60.7075 12.914C59.4155 12.914 58.3009 13.3953 57.3635 14.358C56.4515 15.2953 55.9955 16.7013 55.9955 18.576C55.9955 20.4507 56.4515 21.8693 57.3635 22.832C58.3009 23.7693 59.4029 24.238 60.6695 24.238ZM82.1945 28.456C80.4211 28.456 78.8378 28.0253 77.4445 27.164C76.0511 26.3027 74.9491 25.1247 74.1385 23.63C73.3278 22.1353 72.9225 20.438 72.9225 18.538C72.9225 16.638 73.3278 14.9533 74.1385 13.484C74.9491 11.9893 76.0511 10.824 77.4445 9.988C78.8378 9.12667 80.4211 8.696 82.1945 8.696C83.6131 8.696 84.8545 8.962 85.9185 9.494C86.9825 10.026 87.8438 10.7733 88.5025 11.736V0.639999H93.3665V28H89.0345L88.5025 25.302C87.8945 26.138 87.0838 26.8727 86.0705 27.506C85.0825 28.1393 83.7905 28.456 82.1945 28.456ZM83.2205 24.2C84.7911 24.2 86.0705 23.6807 87.0585 22.642C88.0718 21.578 88.5785 20.2227 88.5785 18.576C88.5785 16.9293 88.0718 15.5867 87.0585 14.548C86.0705 13.484 84.7911 12.952 83.2205 12.952C81.6751 12.952 80.3958 13.4713 79.3825 14.51C78.3691 15.5487 77.8625 16.8913 77.8625 18.538C77.8625 20.1847 78.3691 21.54 79.3825 22.604C80.3958 23.668 81.6751 24.2 83.2205 24.2ZM105.094 28V9.152H109.388L109.806 11.698C110.414 10.786 111.212 10.064 112.2 9.532C113.214 8.97467 114.379 8.696 115.696 8.696C118.61 8.696 120.674 9.82333 121.89 12.078C122.574 11.0393 123.486 10.216 124.626 9.608C125.792 9 127.058 8.696 128.426 8.696C130.884 8.696 132.771 9.43067 134.088 10.9C135.406 12.3693 136.064 14.5227 136.064 17.36V28H131.2V17.816C131.2 16.1947 130.884 14.9533 130.25 14.092C129.642 13.2307 128.692 12.8 127.4 12.8C126.083 12.8 125.019 13.2813 124.208 14.244C123.423 15.2067 123.03 16.5493 123.03 18.272V28H118.166V17.816C118.166 16.1947 117.85 14.9533 117.216 14.092C116.583 13.2307 115.608 12.8 114.29 12.8C112.998 12.8 111.947 13.2813 111.136 14.244C110.351 15.2067 109.958 16.5493 109.958 18.272V28H105.094ZM148.586 28.456C146.762 28.456 145.115 28.038 143.646 27.202C142.202 26.366 141.049 25.2133 140.188 23.744C139.352 22.2493 138.934 20.5267 138.934 18.576C138.934 16.6253 139.365 14.9153 140.226 13.446C141.087 11.9513 142.24 10.786 143.684 9.95C145.153 9.114 146.8 8.696 148.624 8.696C150.423 8.696 152.044 9.114 153.488 9.95C154.957 10.786 156.11 11.9513 156.946 13.446C157.807 14.9153 158.238 16.6253 158.238 18.576C158.238 20.5267 157.807 22.2493 156.946 23.744C156.11 25.2133 154.957 26.366 153.488 27.202C152.019 28.038 150.385 28.456 148.586 28.456ZM148.586 24.238C149.853 24.238 150.955 23.7693 151.892 22.832C152.829 21.8693 153.298 20.4507 153.298 18.576C153.298 16.7013 152.829 15.2953 151.892 14.358C150.955 13.3953 149.865 12.914 148.624 12.914C147.332 12.914 146.217 13.3953 145.28 14.358C144.368 15.2953 143.912 16.7013 143.912 18.576C143.912 20.4507 144.368 21.8693 145.28 22.832C146.217 23.7693 147.319 24.238 148.586 24.238ZM161.447 28V9.152H165.779L166.235 12.686C166.919 11.47 167.844 10.5073 169.009 9.798C170.2 9.06333 171.593 8.696 173.189 8.696V13.826H171.821C170.757 13.826 169.807 13.9907 168.971 14.32C168.135 14.6493 167.476 15.2193 166.995 16.03C166.539 16.8407 166.311 17.968 166.311 19.412V28H161.447ZM175.373 28V9.152H179.667L180.047 12.344C180.63 11.2293 181.466 10.3427 182.555 9.684C183.67 9.02533 184.975 8.696 186.469 8.696C188.8 8.696 190.611 9.43067 191.903 10.9C193.195 12.3693 193.841 14.5227 193.841 17.36V28H188.977V17.816C188.977 16.1947 188.648 14.9533 187.989 14.092C187.331 13.2307 186.305 12.8 184.911 12.8C183.543 12.8 182.416 13.2813 181.529 14.244C180.668 15.2067 180.237 16.5493 180.237 18.272V28H175.373ZM199.975 6.226C199.088 6.226 198.353 5.96 197.771 5.428C197.213 4.896 196.935 4.22467 196.935 3.414C196.935 2.60333 197.213 1.94467 197.771 1.438C198.353 0.905999 199.088 0.639999 199.975 0.639999C200.861 0.639999 201.583 0.905999 202.141 1.438C202.723 1.94467 203.015 2.60333 203.015 3.414C203.015 4.22467 202.723 4.896 202.141 5.428C201.583 5.96 200.861 6.226 199.975 6.226ZM197.543 28V9.152H202.407V28H197.543ZM206.343 28V9.152H210.637L211.017 12.344C211.6 11.2293 212.436 10.3427 213.525 9.684C214.64 9.02533 215.945 8.696 217.439 8.696C219.77 8.696 221.581 9.43067 222.873 10.9C224.165 12.3693 224.811 14.5227 224.811 17.36V28H219.947V17.816C219.947 16.1947 219.618 14.9533 218.959 14.092C218.301 13.2307 217.275 12.8 215.881 12.8C214.513 12.8 213.386 13.2813 212.499 14.244C211.638 15.2067 211.207 16.5493 211.207 18.272V28H206.343ZM236.303 22.376C235.391 22.376 234.542 22.2747 233.757 22.072L232.351 23.478C232.781 23.706 233.364 23.896 234.099 24.048C234.833 24.2 236.024 24.352 237.671 24.504C240.179 24.732 242.003 25.3273 243.143 26.29C244.283 27.2527 244.853 28.5827 244.853 30.28C244.853 31.3947 244.549 32.446 243.941 33.434C243.333 34.4473 242.395 35.258 241.129 35.866C239.862 36.4993 238.241 36.816 236.265 36.816C233.579 36.816 231.413 36.3093 229.767 35.296C228.12 34.308 227.297 32.8133 227.297 30.812C227.297 29.1147 228.12 27.6453 229.767 26.404C229.26 26.176 228.817 25.9353 228.437 25.682C228.082 25.4287 227.765 25.1627 227.487 24.884V24.01L230.793 20.514C229.323 19.222 228.589 17.5627 228.589 15.536C228.589 14.2693 228.893 13.1167 229.501 12.078C230.134 11.0393 231.021 10.216 232.161 9.608C233.301 9 234.681 8.696 236.303 8.696C237.367 8.696 238.355 8.848 239.267 9.152H246.411V12.116L243.181 12.344C243.687 13.3067 243.941 14.3707 243.941 15.536C243.941 16.8027 243.637 17.9553 243.029 18.994C242.421 20.0327 241.534 20.856 240.369 21.464C239.229 22.072 237.873 22.376 236.303 22.376ZM236.303 18.652C237.291 18.652 238.101 18.386 238.735 17.854C239.393 17.322 239.723 16.562 239.723 15.574C239.723 14.586 239.393 13.826 238.735 13.294C238.101 12.762 237.291 12.496 236.303 12.496C235.264 12.496 234.428 12.762 233.795 13.294C233.161 13.826 232.845 14.586 232.845 15.574C232.845 16.562 233.161 17.322 233.795 17.854C234.428 18.386 235.264 18.652 236.303 18.652ZM231.743 30.318C231.743 31.2553 232.173 31.952 233.035 32.408C233.921 32.8893 234.998 33.13 236.265 33.13C237.481 33.13 238.469 32.8767 239.229 32.37C239.989 31.8887 240.369 31.23 240.369 30.394C240.369 29.71 240.115 29.14 239.609 28.684C239.127 28.228 238.152 27.9493 236.683 27.848C235.644 27.772 234.681 27.658 233.795 27.506C233.06 27.9113 232.528 28.3547 232.199 28.836C231.895 29.3173 231.743 29.8113 231.743 30.318Z" fill="white"/>
</svg>
