<svg width="127" height="12" viewBox="0 0 127 12" fill="none" xmlns="http://www.w3.org/2000/svg">
<path d="M0.836729 11.3354V0.835449H2.42673V11.3354H0.836729ZM8.83243 11.5154C8.25243 11.5154 7.73743 11.4004 7.28743 11.1704C6.84743 10.9404 6.49743 10.6154 6.23743 10.1954L6.07243 11.3354H4.64743V0.535449H6.23743V5.05045C6.47743 4.70045 6.80743 4.39045 7.22743 4.12045C7.64743 3.85045 8.18743 3.71545 8.84743 3.71545C9.56743 3.71545 10.2024 3.88545 10.7524 4.22545C11.3024 4.56545 11.7324 5.03045 12.0424 5.62045C12.3624 6.21045 12.5224 6.88045 12.5224 7.63045C12.5224 8.38045 12.3624 9.05045 12.0424 9.64045C11.7324 10.2204 11.3024 10.6804 10.7524 11.0204C10.2024 11.3504 9.56243 11.5154 8.83243 11.5154ZM8.56243 10.1354C9.24243 10.1354 9.80243 9.90545 10.2424 9.44545C10.6824 8.97545 10.9024 8.36545 10.9024 7.61545C10.9024 7.12545 10.8024 6.69045 10.6024 6.31045C10.4024 5.93045 10.1274 5.63545 9.77743 5.42545C9.42743 5.20545 9.02243 5.09545 8.56243 5.09545C7.88243 5.09545 7.32243 5.33045 6.88243 5.80045C6.45243 6.27045 6.23743 6.87545 6.23743 7.61545C6.23743 8.36545 6.45243 8.97545 6.88243 9.44545C7.32243 9.90545 7.88243 10.1354 8.56243 10.1354ZM14.3922 11.3354V3.89545H15.8022L15.9222 5.20045C16.1522 4.74045 16.4872 4.38045 16.9272 4.12045C17.3772 3.85045 17.8922 3.71545 18.4722 3.71545C19.3722 3.71545 20.0772 3.99545 20.5872 4.55545C21.1072 5.11545 21.3672 5.95045 21.3672 7.06045V11.3354H19.7922V7.22545C19.7922 5.78545 19.2022 5.06545 18.0222 5.06545C17.4322 5.06545 16.9422 5.27545 16.5522 5.69545C16.1722 6.11545 15.9822 6.71545 15.9822 7.49545V11.3354H14.3922ZM27.3791 11.3354V0.835449H28.9691V5.33545H34.0541V0.835449H35.6441V11.3354H34.0541V6.64045H28.9691V11.3354H27.3791ZM40.6145 11.5154C39.7145 11.5154 39.0045 11.2354 38.4845 10.6754C37.9745 10.1154 37.7195 9.28045 37.7195 8.17045V3.89545H39.3095V8.00545C39.3095 9.44545 39.8995 10.1654 41.0795 10.1654C41.6695 10.1654 42.1545 9.95545 42.5345 9.53545C42.9145 9.11545 43.1045 8.51545 43.1045 7.73545V3.89545H44.6945V11.3354H43.2845L43.1645 10.0304C42.9345 10.4904 42.5945 10.8554 42.1445 11.1254C41.7045 11.3854 41.1945 11.5154 40.6145 11.5154ZM49.8372 11.5154C48.8972 11.5154 48.1222 11.2854 47.5122 10.8254C46.9022 10.3654 46.5522 9.75545 46.4622 8.99545H48.0672C48.1472 9.33545 48.3372 9.63045 48.6372 9.88045C48.9372 10.1204 49.3322 10.2404 49.8222 10.2404C50.3022 10.2404 50.6522 10.1404 50.8722 9.94045C51.0922 9.74045 51.2022 9.51045 51.2022 9.25045C51.2022 8.87045 51.0472 8.61545 50.7372 8.48545C50.4372 8.34545 50.0172 8.22045 49.4772 8.11045C49.0572 8.02045 48.6372 7.90045 48.2172 7.75045C47.8072 7.60045 47.4622 7.39045 47.1822 7.12045C46.9122 6.84045 46.7772 6.46545 46.7772 5.99545C46.7772 5.34545 47.0272 4.80545 47.5272 4.37545C48.0272 3.93545 48.7272 3.71545 49.6272 3.71545C50.4572 3.71545 51.1272 3.91545 51.6372 4.31545C52.1572 4.71545 52.4622 5.28045 52.5522 6.01045H51.0222C50.9722 5.69045 50.8222 5.44045 50.5722 5.26045C50.3322 5.08045 50.0072 4.99045 49.5972 4.99045C49.1972 4.99045 48.8872 5.07545 48.6672 5.24545C48.4472 5.40545 48.3372 5.61545 48.3372 5.87545C48.3372 6.13545 48.4872 6.34045 48.7872 6.49045C49.0972 6.64045 49.5022 6.77545 50.0022 6.89545C50.5022 7.00545 50.9622 7.13545 51.3822 7.28545C51.8122 7.42545 52.1572 7.63545 52.4172 7.91545C52.6772 8.19545 52.8072 8.60545 52.8072 9.14545C52.8172 9.82545 52.5522 10.3904 52.0122 10.8404C51.4822 11.2904 50.7572 11.5154 49.8372 11.5154ZM57.6629 11.5154C56.7229 11.5154 55.9479 11.2854 55.3379 10.8254C54.7279 10.3654 54.3779 9.75545 54.2879 8.99545H55.8929C55.9729 9.33545 56.1629 9.63045 56.4629 9.88045C56.7629 10.1204 57.1579 10.2404 57.6479 10.2404C58.1279 10.2404 58.4779 10.1404 58.6979 9.94045C58.9179 9.74045 59.0279 9.51045 59.0279 9.25045C59.0279 8.87045 58.8729 8.61545 58.5629 8.48545C58.2629 8.34545 57.8429 8.22045 57.3029 8.11045C56.8829 8.02045 56.4629 7.90045 56.0429 7.75045C55.6329 7.60045 55.2879 7.39045 55.0079 7.12045C54.7379 6.84045 54.6029 6.46545 54.6029 5.99545C54.6029 5.34545 54.8529 4.80545 55.3529 4.37545C55.8529 3.93545 56.5529 3.71545 57.4529 3.71545C58.2829 3.71545 58.9529 3.91545 59.4629 4.31545C59.9829 4.71545 60.2879 5.28045 60.3779 6.01045H58.8479C58.7979 5.69045 58.6479 5.44045 58.3979 5.26045C58.1579 5.08045 57.8329 4.99045 57.4229 4.99045C57.0229 4.99045 56.7129 5.07545 56.4929 5.24545C56.2729 5.40545 56.1629 5.61545 56.1629 5.87545C56.1629 6.13545 56.3129 6.34045 56.6129 6.49045C56.9229 6.64045 57.3279 6.77545 57.8279 6.89545C58.3279 7.00545 58.7879 7.13545 59.2079 7.28545C59.6379 7.42545 59.9829 7.63545 60.2429 7.91545C60.5029 8.19545 60.6329 8.60545 60.6329 9.14545C60.6429 9.82545 60.3779 10.3904 59.8379 10.8404C59.3079 11.2904 58.5829 11.5154 57.6629 11.5154ZM65.0387 11.5154C64.4087 11.5154 63.8887 11.4104 63.4787 11.2004C63.0687 10.9904 62.7637 10.7154 62.5637 10.3754C62.3637 10.0254 62.2637 9.64545 62.2637 9.23545C62.2637 8.51545 62.5437 7.94545 63.1037 7.52545C63.6637 7.10545 64.4637 6.89545 65.5037 6.89545H67.4537V6.76045C67.4537 6.18045 67.2937 5.74545 66.9737 5.45545C66.6637 5.16545 66.2587 5.02045 65.7587 5.02045C65.3187 5.02045 64.9337 5.13045 64.6037 5.35045C64.2837 5.56045 64.0887 5.87545 64.0187 6.29545H62.4287C62.4787 5.75545 62.6587 5.29545 62.9687 4.91545C63.2887 4.52545 63.6887 4.23045 64.1687 4.03045C64.6587 3.82045 65.1937 3.71545 65.7737 3.71545C66.8137 3.71545 67.6187 3.99045 68.1887 4.54045C68.7587 5.08045 69.0437 5.82045 69.0437 6.76045V11.3354H67.6637L67.5287 10.0604C67.3187 10.4704 67.0137 10.8154 66.6137 11.0954C66.2137 11.3754 65.6887 11.5154 65.0387 11.5154ZM65.3537 10.2254C65.7837 10.2254 66.1437 10.1254 66.4337 9.92545C66.7337 9.71545 66.9637 9.44045 67.1237 9.10045C67.2937 8.76045 67.3987 8.38545 67.4387 7.97545H65.6687C65.0387 7.97545 64.5887 8.08545 64.3187 8.30545C64.0587 8.52545 63.9287 8.80045 63.9287 9.13045C63.9287 9.47045 64.0537 9.74045 64.3037 9.94045C64.5637 10.1304 64.9137 10.2254 65.3537 10.2254ZM71.9476 2.48545C71.6476 2.48545 71.3976 2.39545 71.1976 2.21545C71.0076 2.02545 70.9126 1.79045 70.9126 1.51045C70.9126 1.23045 71.0076 1.00045 71.1976 0.820449C71.3976 0.630449 71.6476 0.535449 71.9476 0.535449C72.2476 0.535449 72.4926 0.630449 72.6826 0.820449C72.8826 1.00045 72.9826 1.23045 72.9826 1.51045C72.9826 1.79045 72.8826 2.02545 72.6826 2.21545C72.4926 2.39545 72.2476 2.48545 71.9476 2.48545ZM71.1526 11.3354V3.89545H72.7426V11.3354H71.1526ZM74.9916 11.3354V3.89545H76.4016L76.5216 5.20045C76.7516 4.74045 77.0866 4.38045 77.5266 4.12045C77.9766 3.85045 78.4916 3.71545 79.0716 3.71545C79.9716 3.71545 80.6766 3.99545 81.1866 4.55545C81.7066 5.11545 81.9666 5.95045 81.9666 7.06045V11.3354H80.3916V7.22545C80.3916 5.78545 79.8016 5.06545 78.6216 5.06545C78.0316 5.06545 77.5416 5.27545 77.1516 5.69545C76.7716 6.11545 76.5816 6.71545 76.5816 7.49545V11.3354H74.9916ZM87.3035 11.3354L91.1735 0.835449H92.9135L96.7535 11.3354H95.0735L94.1735 8.77045H89.8835L88.9835 11.3354H87.3035ZM90.3335 7.51045H93.7235L92.0285 2.72545L90.3335 7.51045ZM98.3078 11.3354V0.535449H99.8978V11.3354H98.3078ZM105.541 11.5154C104.811 11.5154 104.161 11.3554 103.591 11.0354C103.031 10.7054 102.591 10.2504 102.271 9.67045C101.951 9.09045 101.791 8.41545 101.791 7.64545C101.791 6.86545 101.946 6.18045 102.256 5.59045C102.576 5.00045 103.016 4.54045 103.576 4.21045C104.146 3.88045 104.806 3.71545 105.556 3.71545C106.286 3.71545 106.921 3.88045 107.461 4.21045C108.001 4.53045 108.421 4.96045 108.721 5.50045C109.021 6.04045 109.171 6.63545 109.171 7.28545C109.171 7.38545 109.166 7.49545 109.156 7.61545C109.156 7.72545 109.151 7.85045 109.141 7.99045H103.351C103.401 8.71045 103.636 9.26045 104.056 9.64045C104.486 10.0104 104.981 10.1954 105.541 10.1954C105.991 10.1954 106.366 10.0954 106.666 9.89545C106.976 9.68545 107.206 9.40545 107.356 9.05545H108.946C108.746 9.75545 108.346 10.3404 107.746 10.8104C107.156 11.2804 106.421 11.5154 105.541 11.5154ZM105.541 5.02045C105.011 5.02045 104.541 5.18045 104.131 5.50045C103.721 5.81045 103.471 6.28045 103.381 6.91045H107.581C107.551 6.33045 107.346 5.87045 106.966 5.53045C106.586 5.19045 106.111 5.02045 105.541 5.02045ZM114.451 11.5154C113.721 11.5154 113.071 11.3554 112.501 11.0354C111.941 10.7054 111.501 10.2504 111.181 9.67045C110.861 9.09045 110.701 8.41545 110.701 7.64545C110.701 6.86545 110.856 6.18045 111.166 5.59045C111.486 5.00045 111.926 4.54045 112.486 4.21045C113.056 3.88045 113.716 3.71545 114.466 3.71545C115.196 3.71545 115.831 3.88045 116.371 4.21045C116.911 4.53045 117.331 4.96045 117.631 5.50045C117.931 6.04045 118.081 6.63545 118.081 7.28545C118.081 7.38545 118.076 7.49545 118.066 7.61545C118.066 7.72545 118.061 7.85045 118.051 7.99045H112.261C112.311 8.71045 112.546 9.26045 112.966 9.64045C113.396 10.0104 113.891 10.1954 114.451 10.1954C114.901 10.1954 115.276 10.0954 115.576 9.89545C115.886 9.68545 116.116 9.40545 116.266 9.05545H117.856C117.656 9.75545 117.256 10.3404 116.656 10.8104C116.066 11.2804 115.331 11.5154 114.451 11.5154ZM114.451 5.02045C113.921 5.02045 113.451 5.18045 113.041 5.50045C112.631 5.81045 112.381 6.28045 112.291 6.91045H116.491C116.461 6.33045 116.256 5.87045 115.876 5.53045C115.496 5.19045 115.021 5.02045 114.451 5.02045ZM119.881 11.3354V3.89545H121.291L121.411 5.20045C121.641 4.74045 121.976 4.38045 122.416 4.12045C122.866 3.85045 123.381 3.71545 123.961 3.71545C124.861 3.71545 125.566 3.99545 126.076 4.55545C126.596 5.11545 126.856 5.95045 126.856 7.06045V11.3354H125.281V7.22545C125.281 5.78545 124.691 5.06545 123.511 5.06545C122.921 5.06545 122.431 5.27545 122.041 5.69545C121.661 6.11545 121.471 6.71545 121.471 7.49545V11.3354H119.881Z" fill="#B3B3B3"/>
</svg>
