<svg width="109" height="20" viewBox="0 0 109 20" fill="none" xmlns="http://www.w3.org/2000/svg">
<path d="M0.36 15V0.999999H2.92V13H9.12V15H0.36ZM12.2956 3.54C11.829 3.54 11.4423 3.4 11.1356 3.12C10.8423 2.84 10.6956 2.48667 10.6956 2.06C10.6956 1.63333 10.8423 1.28667 11.1356 1.02C11.4423 0.739999 11.829 0.599999 12.2956 0.599999C12.7623 0.599999 13.1423 0.739999 13.4356 1.02C13.7423 1.28667 13.8956 1.63333 13.8956 2.06C13.8956 2.48667 13.7423 2.84 13.4356 3.12C13.1423 3.4 12.7623 3.54 12.2956 3.54ZM11.0156 15V5.08H13.5756V15H11.0156ZM15.8477 15V0.599999H18.4077V9.1L21.9277 5.08H24.9677L20.9077 9.6L25.6277 15H22.4277L18.4077 10.02V15H15.8477ZM30.8145 15.24C29.8145 15.24 28.9279 15.0267 28.1545 14.6C27.3812 14.1733 26.7745 13.5733 26.3345 12.8C25.8945 12.0267 25.6745 11.1333 25.6745 10.12C25.6745 9.09333 25.8879 8.18 26.3145 7.38C26.7545 6.58 27.3545 5.96 28.1145 5.52C28.8879 5.06667 29.7945 4.84 30.8345 4.84C31.8079 4.84 32.6679 5.05333 33.4145 5.48C34.1612 5.90667 34.7412 6.49333 35.1545 7.24C35.5812 7.97333 35.7945 8.79333 35.7945 9.7C35.7945 9.84667 35.7879 10 35.7745 10.16C35.7745 10.32 35.7679 10.4867 35.7545 10.66H28.2145C28.2679 11.4333 28.5345 12.04 29.0145 12.48C29.5079 12.92 30.1012 13.14 30.7945 13.14C31.3145 13.14 31.7479 13.0267 32.0945 12.8C32.4545 12.56 32.7212 12.2533 32.8945 11.88H35.4945C35.3079 12.5067 34.9945 13.08 34.5545 13.6C34.1279 14.1067 33.5945 14.5067 32.9545 14.8C32.3279 15.0933 31.6145 15.24 30.8145 15.24ZM30.8345 6.92C30.2079 6.92 29.6545 7.1 29.1745 7.46C28.6945 7.80667 28.3879 8.34 28.2545 9.06H33.1945C33.1545 8.40667 32.9145 7.88667 32.4745 7.5C32.0345 7.11333 31.4879 6.92 30.8345 6.92ZM42.1077 15.24C41.1743 15.24 40.341 15.0133 39.6077 14.56C38.8743 14.1067 38.2943 13.4867 37.8677 12.7C37.441 11.9133 37.2277 11.02 37.2277 10.02C37.2277 9.02 37.441 8.13333 37.8677 7.36C38.2943 6.57333 38.8743 5.96 39.6077 5.52C40.341 5.06667 41.1743 4.84 42.1077 4.84C42.8543 4.84 43.5077 4.98 44.0677 5.26C44.6277 5.54 45.081 5.93333 45.4277 6.44V0.599999H47.9877V15H45.7077L45.4277 13.58C45.1077 14.02 44.681 14.4067 44.1477 14.74C43.6277 15.0733 42.9477 15.24 42.1077 15.24ZM42.6477 13C43.4743 13 44.1477 12.7267 44.6677 12.18C45.201 11.62 45.4677 10.9067 45.4677 10.04C45.4677 9.17333 45.201 8.46667 44.6677 7.92C44.1477 7.36 43.4743 7.08 42.6477 7.08C41.8343 7.08 41.161 7.35333 40.6277 7.9C40.0943 8.44667 39.8277 9.15333 39.8277 10.02C39.8277 10.8867 40.0943 11.6 40.6277 12.16C41.161 12.72 41.8343 13 42.6477 13ZM59.4002 15.24C58.3735 15.24 57.4668 15.0667 56.6802 14.72C55.8935 14.36 55.2735 13.8533 54.8202 13.2C54.3668 12.5333 54.1335 11.7267 54.1202 10.78H56.8202C56.8468 11.4333 57.0802 11.9867 57.5202 12.44C57.9735 12.88 58.5935 13.1 59.3802 13.1C60.0602 13.1 60.6002 12.94 61.0002 12.62C61.4002 12.2867 61.6002 11.8467 61.6002 11.3C61.6002 10.7267 61.4202 10.28 61.0602 9.96C60.7135 9.64 60.2468 9.38 59.6602 9.18C59.0735 8.98 58.4468 8.76667 57.7802 8.54C56.7002 8.16667 55.8735 7.68667 55.3002 7.1C54.7402 6.51333 54.4602 5.73333 54.4602 4.76C54.4468 3.93333 54.6402 3.22667 55.0402 2.64C55.4535 2.04 56.0135 1.58 56.7202 1.26C57.4268 0.926666 58.2402 0.76 59.1602 0.76C60.0935 0.76 60.9135 0.926666 61.6202 1.26C62.3402 1.59333 62.9002 2.06 63.3002 2.66C63.7135 3.26 63.9335 3.97333 63.9602 4.8H61.2202C61.2068 4.30667 61.0135 3.87333 60.6402 3.5C60.2802 3.11333 59.7735 2.92 59.1202 2.92C58.5602 2.90667 58.0868 3.04667 57.7002 3.34C57.3268 3.62 57.1402 4.03333 57.1402 4.58C57.1402 5.04667 57.2868 5.42 57.5802 5.7C57.8735 5.96667 58.2735 6.19333 58.7802 6.38C59.2868 6.56667 59.8668 6.76667 60.5202 6.98C61.2135 7.22 61.8468 7.5 62.4202 7.82C62.9935 8.14 63.4535 8.56667 63.8002 9.1C64.1468 9.62 64.3202 10.2933 64.3202 11.12C64.3202 11.8533 64.1335 12.5333 63.7602 13.16C63.3868 13.7867 62.8335 14.2933 62.1002 14.68C61.3668 15.0533 60.4668 15.24 59.4002 15.24ZM70.8537 15.24C69.8937 15.24 69.0271 15.02 68.2537 14.58C67.4937 14.14 66.8871 13.5333 66.4337 12.76C65.9937 11.9733 65.7737 11.0667 65.7737 10.04C65.7737 9.01333 66.0004 8.11333 66.4537 7.34C66.9071 6.55333 67.5137 5.94 68.2737 5.5C69.0471 5.06 69.9137 4.84 70.8737 4.84C71.8204 4.84 72.6737 5.06 73.4337 5.5C74.2071 5.94 74.8137 6.55333 75.2537 7.34C75.7071 8.11333 75.9337 9.01333 75.9337 10.04C75.9337 11.0667 75.7071 11.9733 75.2537 12.76C74.8137 13.5333 74.2071 14.14 73.4337 14.58C72.6604 15.02 71.8004 15.24 70.8537 15.24ZM70.8537 13.02C71.5204 13.02 72.1004 12.7733 72.5937 12.28C73.0871 11.7733 73.3337 11.0267 73.3337 10.04C73.3337 9.05333 73.0871 8.31333 72.5937 7.82C72.1004 7.31333 71.5271 7.06 70.8737 7.06C70.1937 7.06 69.6071 7.31333 69.1137 7.82C68.6337 8.31333 68.3937 9.05333 68.3937 10.04C68.3937 11.0267 68.6337 11.7733 69.1137 12.28C69.6071 12.7733 70.1871 13.02 70.8537 13.02ZM77.8227 15V5.08H80.0827L80.2827 6.76C80.5893 6.17333 81.0293 5.70667 81.6027 5.36C82.1893 5.01333 82.876 4.84 83.6627 4.84C84.8893 4.84 85.8427 5.22667 86.5227 6C87.2027 6.77333 87.5427 7.90667 87.5427 9.4V15H84.9827V9.64C84.9827 8.78667 84.8093 8.13333 84.4627 7.68C84.116 7.22667 83.576 7 82.8427 7C82.1227 7 81.5293 7.25333 81.0627 7.76C80.6093 8.26667 80.3827 8.97333 80.3827 9.88V15H77.8227ZM93.7906 12.04C93.3106 12.04 92.864 11.9867 92.4506 11.88L91.7106 12.62C91.9373 12.74 92.244 12.84 92.6306 12.92C93.0173 13 93.644 13.08 94.5106 13.16C95.8306 13.28 96.7906 13.5933 97.3906 14.1C97.9906 14.6067 98.2906 15.3067 98.2906 16.2C98.2906 16.7867 98.1306 17.34 97.8106 17.86C97.4906 18.3933 96.9973 18.82 96.3306 19.14C95.664 19.4733 94.8106 19.64 93.7706 19.64C92.3573 19.64 91.2173 19.3733 90.3506 18.84C89.484 18.32 89.0506 17.5333 89.0506 16.48C89.0506 15.5867 89.484 14.8133 90.3506 14.16C90.084 14.04 89.8506 13.9133 89.6506 13.78C89.464 13.6467 89.2973 13.5067 89.1506 13.36V12.9L90.8906 11.06C90.1173 10.38 89.7306 9.50667 89.7306 8.44C89.7306 7.77333 89.8906 7.16667 90.2106 6.62C90.544 6.07333 91.0106 5.64 91.6106 5.32C92.2106 5 92.9373 4.84 93.7906 4.84C94.3506 4.84 94.8706 4.92 95.3506 5.08H99.1106V6.64L97.4106 6.76C97.6773 7.26667 97.8106 7.82667 97.8106 8.44C97.8106 9.10667 97.6506 9.71333 97.3306 10.26C97.0106 10.8067 96.544 11.24 95.9306 11.56C95.3306 11.88 94.6173 12.04 93.7906 12.04ZM93.7906 10.08C94.3106 10.08 94.7373 9.94 95.0706 9.66C95.4173 9.38 95.5906 8.98 95.5906 8.46C95.5906 7.94 95.4173 7.54 95.0706 7.26C94.7373 6.98 94.3106 6.84 93.7906 6.84C93.244 6.84 92.804 6.98 92.4706 7.26C92.1373 7.54 91.9706 7.94 91.9706 8.46C91.9706 8.98 92.1373 9.38 92.4706 9.66C92.804 9.94 93.244 10.08 93.7906 10.08ZM91.3906 16.22C91.3906 16.7133 91.6173 17.08 92.0706 17.32C92.5373 17.5733 93.104 17.7 93.7706 17.7C94.4106 17.7 94.9306 17.5667 95.3306 17.3C95.7306 17.0467 95.9306 16.7 95.9306 16.26C95.9306 15.9 95.7973 15.6 95.5306 15.36C95.2773 15.12 94.764 14.9733 93.9906 14.92C93.444 14.88 92.9373 14.82 92.4706 14.74C92.084 14.9533 91.804 15.1867 91.6306 15.44C91.4706 15.6933 91.3906 15.9533 91.3906 16.22ZM104.677 15.24C103.797 15.24 103.024 15.1 102.357 14.82C101.691 14.5267 101.157 14.1267 100.757 13.62C100.357 13.1133 100.117 12.5267 100.037 11.86H102.617C102.697 12.2467 102.911 12.58 103.257 12.86C103.617 13.1267 104.077 13.26 104.637 13.26C105.197 13.26 105.604 13.1467 105.857 12.92C106.124 12.6933 106.257 12.4333 106.257 12.14C106.257 11.7133 106.071 11.4267 105.697 11.28C105.324 11.12 104.804 10.9667 104.137 10.82C103.711 10.7267 103.277 10.6133 102.837 10.48C102.397 10.3467 101.991 10.18 101.617 9.98C101.257 9.76667 100.964 9.5 100.737 9.18C100.511 8.84667 100.397 8.44 100.397 7.96C100.397 7.08 100.744 6.34 101.437 5.74C102.144 5.14 103.131 4.84 104.397 4.84C105.571 4.84 106.504 5.11333 107.197 5.66C107.904 6.20667 108.324 6.96 108.457 7.92H106.037C105.891 7.18667 105.337 6.82 104.377 6.82C103.897 6.82 103.524 6.91333 103.257 7.1C103.004 7.28667 102.877 7.52 102.877 7.8C102.877 8.09333 103.071 8.32667 103.457 8.5C103.844 8.67333 104.357 8.83333 104.997 8.98C105.691 9.14 106.324 9.32 106.897 9.52C107.484 9.70667 107.951 9.99333 108.297 10.38C108.644 10.7533 108.817 11.2933 108.817 12C108.831 12.6133 108.671 13.1667 108.337 13.66C108.004 14.1533 107.524 14.54 106.897 14.82C106.271 15.1 105.531 15.24 104.677 15.24Z" fill="white"/>
</svg>
