<svg width="167" height="16" viewBox="0 0 167 16" fill="none" xmlns="http://www.w3.org/2000/svg">
<path d="M0.17496 15.5884V0.888378H2.79996L7.77696 10.6744L12.733 0.888378H15.358V15.5884H13.132V4.73138L8.63796 13.4884H6.91596L2.40096 4.75238V15.5884H0.17496ZM17.9249 15.5884V0.888378H27.2699V2.69438H20.1509V7.27238H26.6399V9.03638H20.1509V13.7824H27.2699V15.5884H17.9249ZM29.502 15.5884V0.888378H34.269C35.991 0.888378 37.405 1.18938 38.511 1.79138C39.631 2.39338 40.457 3.24738 40.989 4.35338C41.535 5.44538 41.808 6.74738 41.808 8.25938C41.808 9.75738 41.535 11.0594 40.989 12.1654C40.457 13.2574 39.631 14.1044 38.511 14.7064C37.405 15.2944 35.991 15.5884 34.269 15.5884H29.502ZM31.728 13.6984H34.185C35.515 13.6984 36.565 13.4814 37.335 13.0474C38.119 12.6134 38.679 11.9904 39.015 11.1784C39.365 10.3664 39.54 9.39338 39.54 8.25938C39.54 7.12538 39.365 6.14538 39.015 5.31938C38.679 4.49338 38.119 3.86338 37.335 3.42938C36.565 2.98138 35.515 2.75738 34.185 2.75738H31.728V13.6984ZM43.8476 15.5884V0.888378H46.0736V15.5884H43.8476ZM52.0806 15.5884V2.69438H47.7336V0.888378H58.6326V2.69438H54.3066V15.5884H52.0806ZM57.7511 15.5884L63.1691 0.888378H65.6051L70.9811 15.5884H68.6291L67.3691 11.9974H61.3631L60.1031 15.5884H57.7511ZM61.9931 10.2334H66.7391L64.3661 3.53438L61.9931 10.2334ZM74.4554 15.5884V2.69438H70.1084V0.888378H81.0074V2.69438H76.6814V15.5884H74.4554ZM82.6705 15.5884V0.888378H84.8965V15.5884H82.6705ZM94.2425 15.8404C92.7865 15.8404 91.5125 15.5184 90.4205 14.8744C89.3285 14.2304 88.4745 13.3414 87.8585 12.2074C87.2425 11.0594 86.9345 9.73638 86.9345 8.23838C86.9345 6.74038 87.2425 5.42438 87.8585 4.29038C88.4745 3.14238 89.3285 2.24638 90.4205 1.60238C91.5125 0.958379 92.7865 0.636379 94.2425 0.636379C95.6985 0.636379 96.9725 0.958379 98.0645 1.60238C99.1565 2.24638 100.003 3.14238 100.605 4.29038C101.221 5.42438 101.529 6.74038 101.529 8.23838C101.529 9.73638 101.221 11.0594 100.605 12.2074C100.003 13.3414 99.1565 14.2304 98.0645 14.8744C96.9725 15.5184 95.6985 15.8404 94.2425 15.8404ZM94.2425 13.8454C95.2505 13.8454 96.1255 13.6214 96.8675 13.1734C97.6235 12.7254 98.2115 12.0814 98.6315 11.2414C99.0515 10.4014 99.2615 9.40038 99.2615 8.23838C99.2615 7.07638 99.0515 6.07538 98.6315 5.23538C98.2115 4.39538 97.6235 3.75138 96.8675 3.30338C96.1255 2.85538 95.2505 2.63138 94.2425 2.63138C93.2345 2.63138 92.3525 2.85538 91.5965 3.30338C90.8405 3.75138 90.2525 4.39538 89.8325 5.23538C89.4265 6.07538 89.2235 7.07638 89.2235 8.23838C89.2235 9.40038 89.4265 10.4014 89.8325 11.2414C90.2525 12.0814 90.8405 12.7254 91.5965 13.1734C92.3525 13.6214 93.2345 13.8454 94.2425 13.8454ZM103.589 15.5884V0.888378H105.815L113.186 11.9554V0.888378H115.412V15.5884H113.186L105.815 4.52138V15.5884H103.589ZM127.698 15.8404C126.62 15.8404 125.675 15.6514 124.863 15.2734C124.051 14.8954 123.414 14.3564 122.952 13.6564C122.504 12.9564 122.273 12.1234 122.259 11.1574H124.611C124.625 11.9414 124.898 12.6064 125.43 13.1524C125.962 13.6984 126.711 13.9714 127.677 13.9714C128.531 13.9714 129.196 13.7684 129.672 13.3624C130.162 12.9424 130.407 12.4104 130.407 11.7664C130.407 11.2484 130.288 10.8284 130.05 10.5064C129.826 10.1844 129.511 9.91838 129.105 9.70838C128.713 9.49838 128.258 9.30938 127.74 9.14138C127.222 8.97338 126.676 8.79138 126.102 8.59538C124.968 8.21738 124.114 7.72738 123.54 7.12538C122.98 6.52338 122.7 5.73238 122.7 4.75238C122.686 3.92638 122.875 3.20538 123.267 2.58938C123.673 1.97338 124.233 1.49738 124.947 1.16138C125.675 0.811378 126.522 0.636379 127.488 0.636379C128.44 0.636379 129.273 0.811378 129.987 1.16138C130.715 1.51138 131.282 2.00138 131.688 2.63138C132.094 3.24738 132.304 3.96838 132.318 4.79438H129.966C129.966 4.41638 129.868 4.05938 129.672 3.72338C129.476 3.37338 129.189 3.08638 128.811 2.86238C128.433 2.63838 127.971 2.52638 127.425 2.52638C126.725 2.51238 126.144 2.68738 125.682 3.05138C125.234 3.41538 125.01 3.91938 125.01 4.56338C125.01 5.13738 125.178 5.57838 125.514 5.88638C125.85 6.19438 126.312 6.45338 126.9 6.66338C127.488 6.85938 128.16 7.09038 128.916 7.35638C129.644 7.59438 130.295 7.88138 130.869 8.21738C131.443 8.55338 131.898 8.99438 132.234 9.54038C132.584 10.0864 132.759 10.7794 132.759 11.6194C132.759 12.3614 132.57 13.0544 132.192 13.6984C131.814 14.3284 131.247 14.8464 130.491 15.2524C129.735 15.6444 128.804 15.8404 127.698 15.8404ZM134.773 15.5884V0.888378H144.118V2.69438H136.999V7.27238H143.488V9.03638H136.999V13.7824H144.118V15.5884H134.773ZM146.35 15.5884V0.888378H148.576V13.8244H155.254V15.5884H146.35ZM157.23 15.5884V0.888378H166.449V2.69438H159.456V7.33538H165.252V9.12038H159.456V15.5884H157.23Z" fill="white"/>
</svg>
