<svg width="130" height="20" viewBox="0 0 130 20" fill="none" xmlns="http://www.w3.org/2000/svg">
<path d="M0.36 15V0.999999H2.92L9.5 10.86V0.999999H12.06V15H9.5L2.92 5.16V15H0.36ZM19.1341 15.24C18.1341 15.24 17.2474 15.0267 16.4741 14.6C15.7007 14.1733 15.0941 13.5733 14.6541 12.8C14.2141 12.0267 13.9941 11.1333 13.9941 10.12C13.9941 9.09333 14.2074 8.18 14.6341 7.38C15.0741 6.58 15.6741 5.96 16.4341 5.52C17.2074 5.06667 18.1141 4.84 19.1541 4.84C20.1274 4.84 20.9874 5.05333 21.7341 5.48C22.4807 5.90667 23.0607 6.49333 23.4741 7.24C23.9007 7.97333 24.1141 8.79333 24.1141 9.7C24.1141 9.84667 24.1074 10 24.0941 10.16C24.0941 10.32 24.0874 10.4867 24.0741 10.66H16.5341C16.5874 11.4333 16.8541 12.04 17.3341 12.48C17.8274 12.92 18.4207 13.14 19.1141 13.14C19.6341 13.14 20.0674 13.0267 20.4141 12.8C20.7741 12.56 21.0407 12.2533 21.2141 11.88H23.8141C23.6274 12.5067 23.3141 13.08 22.8741 13.6C22.4474 14.1067 21.9141 14.5067 21.2741 14.8C20.6474 15.0933 19.9341 15.24 19.1341 15.24ZM19.1541 6.92C18.5274 6.92 17.9741 7.1 17.4941 7.46C17.0141 7.80667 16.7074 8.34 16.5741 9.06H21.5141C21.4741 8.40667 21.2341 7.88667 20.7941 7.5C20.3541 7.11333 19.8074 6.92 19.1541 6.92ZM26.3272 15V7.22H24.9672V5.08H26.3272V3.92C26.3272 2.72 26.6272 1.86667 27.2272 1.36C27.8405 0.853333 28.6672 0.599999 29.7072 0.599999H30.8072V2.78H30.1072C29.6672 2.78 29.3539 2.86667 29.1672 3.04C28.9805 3.21333 28.8872 3.50667 28.8872 3.92V5.08H31.0272V7.22H28.8872V15H26.3272ZM33.1147 15V7.22H31.7547V5.08H33.1147V3.92C33.1147 2.72 33.4147 1.86667 34.0147 1.36C34.628 0.853333 35.4547 0.599999 36.4947 0.599999H37.5947V2.78H36.8947C36.4547 2.78 36.1414 2.86667 35.9547 3.04C35.768 3.21333 35.6747 3.50667 35.6747 3.92V5.08H37.8147V7.22H35.6747V15H33.1147ZM43.8716 15.24C42.8716 15.24 41.9849 15.0267 41.2116 14.6C40.4382 14.1733 39.8316 13.5733 39.3916 12.8C38.9516 12.0267 38.7316 11.1333 38.7316 10.12C38.7316 9.09333 38.9449 8.18 39.3716 7.38C39.8116 6.58 40.4116 5.96 41.1716 5.52C41.9449 5.06667 42.8516 4.84 43.8916 4.84C44.8649 4.84 45.7249 5.05333 46.4716 5.48C47.2182 5.90667 47.7982 6.49333 48.2116 7.24C48.6382 7.97333 48.8516 8.79333 48.8516 9.7C48.8516 9.84667 48.8449 10 48.8316 10.16C48.8316 10.32 48.8249 10.4867 48.8116 10.66H41.2716C41.3249 11.4333 41.5916 12.04 42.0716 12.48C42.5649 12.92 43.1582 13.14 43.8516 13.14C44.3716 13.14 44.8049 13.0267 45.1516 12.8C45.5116 12.56 45.7782 12.2533 45.9516 11.88H48.5516C48.3649 12.5067 48.0516 13.08 47.6116 13.6C47.1849 14.1067 46.6516 14.5067 46.0116 14.8C45.3849 15.0933 44.6716 15.24 43.8716 15.24ZM43.8916 6.92C43.2649 6.92 42.7116 7.1 42.2316 7.46C41.7516 7.80667 41.4449 8.34 41.3116 9.06H46.2516C46.2116 8.40667 45.9716 7.88667 45.5316 7.5C45.0916 7.11333 44.5449 6.92 43.8916 6.92ZM48.9811 15L52.5811 10.04L48.9811 5.08H51.7211L54.2411 8.6L56.7411 5.08H59.5011L55.8811 10.04L59.5011 15H56.7411L54.2411 11.48L51.7211 15H48.9811ZM65.1577 15V0.999999H70.3377C71.4577 0.999999 72.3843 1.18667 73.1177 1.56C73.851 1.93333 74.3977 2.44667 74.7577 3.1C75.1177 3.75333 75.2977 4.48667 75.2977 5.3C75.2977 6.07333 75.1243 6.78667 74.7777 7.44C74.431 8.08 73.891 8.6 73.1577 9C72.4243 9.38667 71.4843 9.58 70.3377 9.58H67.7177V15H65.1577ZM67.7177 7.5H70.1777C71.071 7.5 71.711 7.30667 72.0977 6.92C72.4977 6.52 72.6977 5.98 72.6977 5.3C72.6977 4.60667 72.4977 4.06667 72.0977 3.68C71.711 3.28 71.071 3.08 70.1777 3.08H67.7177V7.5ZM76.8461 15V0.599999H79.4061V15H76.8461ZM85.0419 15.24C84.1885 15.24 83.4885 15.1067 82.9419 14.84C82.3952 14.56 81.9885 14.1933 81.7219 13.74C81.4552 13.2867 81.3219 12.7867 81.3219 12.24C81.3219 11.32 81.6819 10.5733 82.4019 10C83.1219 9.42667 84.2019 9.14 85.6419 9.14H88.1619V8.9C88.1619 8.22 87.9685 7.72 87.5819 7.4C87.1952 7.08 86.7152 6.92 86.1419 6.92C85.6219 6.92 85.1685 7.04667 84.7819 7.3C84.3952 7.54 84.1552 7.9 84.0619 8.38H81.5619C81.6285 7.66 81.8685 7.03333 82.2819 6.5C82.7085 5.96667 83.2552 5.56 83.9219 5.28C84.5885 4.98667 85.3352 4.84 86.1619 4.84C87.5752 4.84 88.6885 5.19333 89.5019 5.9C90.3152 6.60667 90.7219 7.60667 90.7219 8.9V15H88.5419L88.3019 13.4C88.0085 13.9333 87.5952 14.3733 87.0619 14.72C86.5419 15.0667 85.8685 15.24 85.0419 15.24ZM85.6219 13.24C86.3552 13.24 86.9219 13 87.3219 12.52C87.7352 12.04 87.9952 11.4467 88.1019 10.74H85.9219C85.2419 10.74 84.7552 10.8667 84.4619 11.12C84.1685 11.36 84.0219 11.66 84.0219 12.02C84.0219 12.4067 84.1685 12.7067 84.4619 12.92C84.7552 13.1333 85.1419 13.24 85.6219 13.24ZM93.6728 19.4L95.9728 14.34H95.3728L91.5128 5.08H94.2928L97.0728 12.06L99.9728 5.08H102.693L96.3928 19.4H93.6728ZM103.966 15V0.599999H106.526V15H103.966ZM110.122 3.54C109.656 3.54 109.269 3.4 108.962 3.12C108.669 2.84 108.522 2.48667 108.522 2.06C108.522 1.63333 108.669 1.28667 108.962 1.02C109.269 0.739999 109.656 0.599999 110.122 0.599999C110.589 0.599999 110.969 0.739999 111.262 1.02C111.569 1.28667 111.722 1.63333 111.722 2.06C111.722 2.48667 111.569 2.84 111.262 3.12C110.969 3.4 110.589 3.54 110.122 3.54ZM108.842 15V5.08H111.402V15H108.842ZM117.774 15.24C116.894 15.24 116.121 15.1 115.454 14.82C114.788 14.5267 114.254 14.1267 113.854 13.62C113.454 13.1133 113.214 12.5267 113.134 11.86H115.714C115.794 12.2467 116.008 12.58 116.354 12.86C116.714 13.1267 117.174 13.26 117.734 13.26C118.294 13.26 118.701 13.1467 118.954 12.92C119.221 12.6933 119.354 12.4333 119.354 12.14C119.354 11.7133 119.168 11.4267 118.794 11.28C118.421 11.12 117.901 10.9667 117.234 10.82C116.808 10.7267 116.374 10.6133 115.934 10.48C115.494 10.3467 115.088 10.18 114.714 9.98C114.354 9.76667 114.061 9.5 113.834 9.18C113.608 8.84667 113.494 8.44 113.494 7.96C113.494 7.08 113.841 6.34 114.534 5.74C115.241 5.14 116.228 4.84 117.494 4.84C118.668 4.84 119.601 5.11333 120.294 5.66C121.001 6.20667 121.421 6.96 121.554 7.92H119.134C118.988 7.18667 118.434 6.82 117.474 6.82C116.994 6.82 116.621 6.91333 116.354 7.1C116.101 7.28667 115.974 7.52 115.974 7.8C115.974 8.09333 116.168 8.32667 116.554 8.5C116.941 8.67333 117.454 8.83333 118.094 8.98C118.788 9.14 119.421 9.32 119.994 9.52C120.581 9.70667 121.048 9.99333 121.394 10.38C121.741 10.7533 121.914 11.2933 121.914 12C121.928 12.6133 121.768 13.1667 121.434 13.66C121.101 14.1533 120.621 14.54 119.994 14.82C119.368 15.1 118.628 15.24 117.774 15.24ZM127.89 15C126.85 15 126.016 14.7467 125.39 14.24C124.763 13.7333 124.45 12.8333 124.45 11.54V7.22H122.75V5.08H124.45L124.75 2.42H127.01V5.08H129.69V7.22H127.01V11.56C127.01 12.04 127.11 12.3733 127.31 12.56C127.523 12.7333 127.883 12.82 128.39 12.82H129.63V15H127.89Z" fill="white"/>
</svg>
