<svg width="96" height="12" viewBox="0 0 96 12" fill="none" xmlns="http://www.w3.org/2000/svg">
<path d="M4.22885 11.5154C3.45885 11.5154 2.78385 11.3804 2.20385 11.1104C1.62385 10.8404 1.16885 10.4554 0.838853 9.95545C0.518853 9.45545 0.353853 8.86045 0.343853 8.17045H2.02385C2.03385 8.73045 2.22885 9.20545 2.60885 9.59545C2.98885 9.98545 3.52385 10.1804 4.21385 10.1804C4.82385 10.1804 5.29885 10.0354 5.63885 9.74545C5.98885 9.44545 6.16385 9.06545 6.16385 8.60545C6.16385 8.23545 6.07885 7.93545 5.90885 7.70545C5.74885 7.47545 5.52385 7.28545 5.23385 7.13545C4.95385 6.98545 4.62885 6.85045 4.25885 6.73045C3.88885 6.61045 3.49885 6.48045 3.08885 6.34045C2.27885 6.07045 1.66885 5.72045 1.25885 5.29045C0.858853 4.86045 0.658853 4.29545 0.658853 3.59545C0.648853 3.00545 0.783853 2.49045 1.06385 2.05045C1.35385 1.61045 1.75385 1.27045 2.26385 1.03045C2.78385 0.780449 3.38885 0.655449 4.07885 0.655449C4.75885 0.655449 5.35385 0.780449 5.86385 1.03045C6.38385 1.28045 6.78885 1.63045 7.07885 2.08045C7.36885 2.52045 7.51885 3.03545 7.52885 3.62545H5.84885C5.84885 3.35545 5.77885 3.10045 5.63885 2.86045C5.49885 2.61045 5.29385 2.40545 5.02385 2.24545C4.75385 2.08545 4.42385 2.00545 4.03385 2.00545C3.53385 1.99545 3.11885 2.12045 2.78885 2.38045C2.46885 2.64045 2.30885 3.00045 2.30885 3.46045C2.30885 3.87045 2.42885 4.18545 2.66885 4.40545C2.90885 4.62545 3.23885 4.81045 3.65885 4.96045C4.07885 5.10045 4.55885 5.26545 5.09885 5.45545C5.61885 5.62545 6.08385 5.83045 6.49385 6.07045C6.90385 6.31045 7.22885 6.62545 7.46885 7.01545C7.71885 7.40545 7.84385 7.90045 7.84385 8.50045C7.84385 9.03045 7.70885 9.52545 7.43885 9.98545C7.16885 10.4354 6.76385 10.8054 6.22385 11.0954C5.68385 11.3754 5.01885 11.5154 4.22885 11.5154ZM12.1922 11.5154C11.5622 11.5154 11.0422 11.4104 10.6322 11.2004C10.2222 10.9904 9.91721 10.7154 9.71721 10.3754C9.51721 10.0254 9.41721 9.64545 9.41721 9.23545C9.41721 8.51545 9.69721 7.94545 10.2572 7.52545C10.8172 7.10545 11.6172 6.89545 12.6572 6.89545H14.6072V6.76045C14.6072 6.18045 14.4472 5.74545 14.1272 5.45545C13.8172 5.16545 13.4122 5.02045 12.9122 5.02045C12.4722 5.02045 12.0872 5.13045 11.7572 5.35045C11.4372 5.56045 11.2422 5.87545 11.1722 6.29545H9.58221C9.63221 5.75545 9.81221 5.29545 10.1222 4.91545C10.4422 4.52545 10.8422 4.23045 11.3222 4.03045C11.8122 3.82045 12.3472 3.71545 12.9272 3.71545C13.9672 3.71545 14.7722 3.99045 15.3422 4.54045C15.9122 5.08045 16.1972 5.82045 16.1972 6.76045V11.3354H14.8172L14.6822 10.0604C14.4722 10.4704 14.1672 10.8154 13.7672 11.0954C13.3672 11.3754 12.8422 11.5154 12.1922 11.5154ZM12.5072 10.2254C12.9372 10.2254 13.2972 10.1254 13.5872 9.92545C13.8872 9.71545 14.1172 9.44045 14.2772 9.10045C14.4472 8.76045 14.5522 8.38545 14.5922 7.97545H12.8222C12.1922 7.97545 11.7422 8.08545 11.4722 8.30545C11.2122 8.52545 11.0822 8.80045 11.0822 9.13045C11.0822 9.47045 11.2072 9.74045 11.4572 9.94045C11.7172 10.1304 12.0672 10.2254 12.5072 10.2254ZM18.2011 11.3354V3.89545H19.6111L19.7461 4.94545C19.9861 4.56545 20.3011 4.26545 20.6911 4.04545C21.0911 3.82545 21.5511 3.71545 22.0711 3.71545C23.2511 3.71545 24.0711 4.18045 24.5311 5.11045C24.8011 4.68045 25.1611 4.34045 25.6111 4.09045C26.0711 3.84045 26.5661 3.71545 27.0961 3.71545C28.0261 3.71545 28.7561 3.99545 29.2861 4.55545C29.8161 5.11545 30.0811 5.95045 30.0811 7.06045V11.3354H28.4911V7.22545C28.4911 5.78545 27.9411 5.06545 26.8411 5.06545C26.2811 5.06545 25.8211 5.27545 25.4611 5.69545C25.1111 6.11545 24.9361 6.71545 24.9361 7.49545V11.3354H23.3461V7.22545C23.3461 5.78545 22.7911 5.06545 21.6811 5.06545C21.1311 5.06545 20.6761 5.27545 20.3161 5.69545C19.9661 6.11545 19.7911 6.71545 19.7911 7.49545V11.3354H18.2011ZM34.8364 11.5154C33.9364 11.5154 33.2264 11.2354 32.7064 10.6754C32.1964 10.1154 31.9414 9.28045 31.9414 8.17045V3.89545H33.5314V8.00545C33.5314 9.44545 34.1214 10.1654 35.3014 10.1654C35.8914 10.1654 36.3764 9.95545 36.7564 9.53545C37.1364 9.11545 37.3264 8.51545 37.3264 7.73545V3.89545H38.9164V11.3354H37.5064L37.3864 10.0304C37.1564 10.4904 36.8164 10.8554 36.3664 11.1254C35.9264 11.3854 35.4164 11.5154 34.8364 11.5154ZM44.569 11.5154C43.839 11.5154 43.189 11.3554 42.619 11.0354C42.059 10.7054 41.619 10.2504 41.299 9.67045C40.979 9.09045 40.819 8.41545 40.819 7.64545C40.819 6.86545 40.974 6.18045 41.284 5.59045C41.604 5.00045 42.044 4.54045 42.604 4.21045C43.174 3.88045 43.834 3.71545 44.584 3.71545C45.314 3.71545 45.949 3.88045 46.489 4.21045C47.029 4.53045 47.449 4.96045 47.749 5.50045C48.049 6.04045 48.199 6.63545 48.199 7.28545C48.199 7.38545 48.194 7.49545 48.184 7.61545C48.184 7.72545 48.179 7.85045 48.169 7.99045H42.379C42.429 8.71045 42.664 9.26045 43.084 9.64045C43.514 10.0104 44.009 10.1954 44.569 10.1954C45.019 10.1954 45.394 10.0954 45.694 9.89545C46.004 9.68545 46.234 9.40545 46.384 9.05545H47.974C47.774 9.75545 47.374 10.3404 46.774 10.8104C46.184 11.2804 45.449 11.5154 44.569 11.5154ZM44.569 5.02045C44.039 5.02045 43.569 5.18045 43.159 5.50045C42.749 5.81045 42.499 6.28045 42.409 6.91045H46.609C46.579 6.33045 46.374 5.87045 45.994 5.53045C45.614 5.19045 45.139 5.02045 44.569 5.02045ZM49.9988 11.3354V0.535449H51.5888V11.3354H49.9988ZM61.2066 11.5154C60.4366 11.5154 59.7616 11.3804 59.1816 11.1104C58.6016 10.8404 58.1466 10.4554 57.8166 9.95545C57.4966 9.45545 57.3316 8.86045 57.3216 8.17045H59.0016C59.0116 8.73045 59.2066 9.20545 59.5866 9.59545C59.9666 9.98545 60.5016 10.1804 61.1916 10.1804C61.8016 10.1804 62.2766 10.0354 62.6166 9.74545C62.9666 9.44545 63.1416 9.06545 63.1416 8.60545C63.1416 8.23545 63.0566 7.93545 62.8866 7.70545C62.7266 7.47545 62.5016 7.28545 62.2116 7.13545C61.9316 6.98545 61.6066 6.85045 61.2366 6.73045C60.8666 6.61045 60.4766 6.48045 60.0666 6.34045C59.2566 6.07045 58.6466 5.72045 58.2366 5.29045C57.8366 4.86045 57.6366 4.29545 57.6366 3.59545C57.6266 3.00545 57.7616 2.49045 58.0416 2.05045C58.3316 1.61045 58.7316 1.27045 59.2416 1.03045C59.7616 0.780449 60.3666 0.655449 61.0566 0.655449C61.7366 0.655449 62.3316 0.780449 62.8416 1.03045C63.3616 1.28045 63.7666 1.63045 64.0566 2.08045C64.3466 2.52045 64.4966 3.03545 64.5066 3.62545H62.8266C62.8266 3.35545 62.7566 3.10045 62.6166 2.86045C62.4766 2.61045 62.2716 2.40545 62.0016 2.24545C61.7316 2.08545 61.4016 2.00545 61.0116 2.00545C60.5116 1.99545 60.0966 2.12045 59.7666 2.38045C59.4466 2.64045 59.2866 3.00045 59.2866 3.46045C59.2866 3.87045 59.4066 4.18545 59.6466 4.40545C59.8866 4.62545 60.2166 4.81045 60.6366 4.96045C61.0566 5.10045 61.5366 5.26545 62.0766 5.45545C62.5966 5.62545 63.0616 5.83045 63.4716 6.07045C63.8816 6.31045 64.2066 6.62545 64.4466 7.01545C64.6966 7.40545 64.8216 7.90045 64.8216 8.50045C64.8216 9.03045 64.6866 9.52545 64.4166 9.98545C64.1466 10.4354 63.7416 10.8054 63.2016 11.0954C62.6616 11.3754 61.9966 11.5154 61.2066 11.5154ZM70.1749 11.5154C69.4449 11.5154 68.7899 11.3504 68.2099 11.0204C67.6399 10.6904 67.1899 10.2354 66.8599 9.65545C66.5399 9.06545 66.3799 8.38545 66.3799 7.61545C66.3799 6.84545 66.5399 6.17045 66.8599 5.59045C67.1899 5.00045 67.6399 4.54045 68.2099 4.21045C68.7899 3.88045 69.4449 3.71545 70.1749 3.71545C71.0949 3.71545 71.8649 3.95545 72.4849 4.43545C73.1149 4.91545 73.5199 5.56545 73.6999 6.38545H72.0349C71.9349 5.97545 71.7149 5.65545 71.3749 5.42545C71.0349 5.19545 70.6349 5.08045 70.1749 5.08045C69.7849 5.08045 69.4249 5.18045 69.0949 5.38045C68.7649 5.57045 68.4999 5.85545 68.2999 6.23545C68.0999 6.60545 67.9999 7.06545 67.9999 7.61545C67.9999 8.16545 68.0999 8.63045 68.2999 9.01045C68.4999 9.38045 68.7649 9.66545 69.0949 9.86545C69.4249 10.0654 69.7849 10.1654 70.1749 10.1654C70.6349 10.1654 71.0349 10.0504 71.3749 9.82045C71.7149 9.59045 71.9349 9.26545 72.0349 8.84545H73.6999C73.5299 9.64545 73.1299 10.2904 72.4999 10.7804C71.8699 11.2704 71.0949 11.5154 70.1749 11.5154ZM79.0544 11.5154C78.3444 11.5154 77.7044 11.3554 77.1344 11.0354C76.5744 10.7054 76.1294 10.2504 75.7994 9.67045C75.4694 9.08045 75.3044 8.39545 75.3044 7.61545C75.3044 6.83545 75.4694 6.15545 75.7994 5.57545C76.1394 4.98545 76.5944 4.53045 77.1644 4.21045C77.7344 3.88045 78.3694 3.71545 79.0694 3.71545C79.7794 3.71545 80.4144 3.88045 80.9744 4.21045C81.5444 4.53045 81.9944 4.98545 82.3244 5.57545C82.6644 6.15545 82.8344 6.83545 82.8344 7.61545C82.8344 8.39545 82.6644 9.08045 82.3244 9.67045C81.9944 10.2504 81.5444 10.7054 80.9744 11.0354C80.4044 11.3554 79.7644 11.5154 79.0544 11.5154ZM79.0544 10.1504C79.4344 10.1504 79.7844 10.0554 80.1044 9.86545C80.4344 9.67545 80.6994 9.39545 80.8994 9.02545C81.0994 8.64545 81.1994 8.17545 81.1994 7.61545C81.1994 7.05545 81.0994 6.59045 80.8994 6.22045C80.7094 5.84045 80.4494 5.55545 80.1194 5.36545C79.7994 5.17545 79.4494 5.08045 79.0694 5.08045C78.6894 5.08045 78.3344 5.17545 78.0044 5.36545C77.6844 5.55545 77.4244 5.84045 77.2244 6.22045C77.0244 6.59045 76.9244 7.05545 76.9244 7.61545C76.9244 8.17545 77.0244 8.64545 77.2244 9.02545C77.4244 9.39545 77.6844 9.67545 78.0044 9.86545C78.3244 10.0554 78.6744 10.1504 79.0544 10.1504ZM87.5309 11.3354C86.8009 11.3354 86.2209 11.1604 85.7909 10.8104C85.3609 10.4504 85.1459 9.81545 85.1459 8.90545V5.23045H83.8709V3.89545H85.1459L85.3409 2.00545H86.7359V3.89545H88.8359V5.23045H86.7359V8.90545C86.7359 9.31545 86.8209 9.60045 86.9909 9.76045C87.1709 9.91045 87.4759 9.98545 87.9059 9.98545H88.7609V11.3354H87.5309ZM93.7453 11.3354C93.0153 11.3354 92.4353 11.1604 92.0053 10.8104C91.5753 10.4504 91.3603 9.81545 91.3603 8.90545V5.23045H90.0853V3.89545H91.3603L91.5553 2.00545H92.9503V3.89545H95.0503V5.23045H92.9503V8.90545C92.9503 9.31545 93.0353 9.60045 93.2053 9.76045C93.3853 9.91045 93.6903 9.98545 94.1203 9.98545H94.9753V11.3354H93.7453Z" fill="#B3B3B3"/>
</svg>
