<svg width="268" height="28" viewBox="0 0 268 28" fill="none" xmlns="http://www.w3.org/2000/svg">
<path d="M7.903 21.348C6.41433 21.348 5.09967 21.0967 3.959 20.594C2.81833 20.072 1.91933 19.3373 1.262 18.39C0.604667 17.4233 0.266333 16.2537 0.247 14.881H4.162C4.20067 15.8283 4.539 16.6307 5.177 17.288C5.83433 17.926 6.73333 18.245 7.874 18.245C8.86 18.245 9.643 18.013 10.223 17.549C10.803 17.0657 11.093 16.4277 11.093 15.635C11.093 14.8037 10.832 14.156 10.31 13.692C9.80733 13.228 9.13067 12.851 8.28 12.561C7.42933 12.271 6.52067 11.9617 5.554 11.633C3.988 11.0917 2.78933 10.3957 1.958 9.545C1.146 8.69433 0.74 7.56333 0.74 6.152C0.720667 4.95333 1.001 3.92867 1.581 3.078C2.18033 2.208 2.99233 1.541 4.017 1.077C5.04167 0.593666 6.221 0.352 7.555 0.352C8.90833 0.352 10.0973 0.593666 11.122 1.077C12.166 1.56033 12.978 2.237 13.558 3.107C14.1573 3.977 14.4763 5.01133 14.515 6.21H10.542C10.5227 5.49467 10.2423 4.86633 9.701 4.325C9.179 3.76433 8.44433 3.484 7.497 3.484C6.685 3.46467 5.99867 3.66767 5.438 4.093C4.89667 4.499 4.626 5.09833 4.626 5.891C4.626 6.56767 4.83867 7.109 5.264 7.515C5.68933 7.90167 6.26933 8.23033 7.004 8.501C7.73867 8.77167 8.57967 9.06167 9.527 9.371C10.5323 9.719 11.4507 10.125 12.282 10.589C13.1133 11.053 13.7803 11.6717 14.283 12.445C14.7857 13.199 15.037 14.1753 15.037 15.374C15.037 16.4373 14.7663 17.4233 14.225 18.332C13.6837 19.2407 12.8813 19.9753 11.818 20.536C10.7547 21.0773 9.44967 21.348 7.903 21.348ZM17.0287 21V0.119999H20.7407V8.82C21.224 8.02733 21.8717 7.40867 22.6837 6.964C23.515 6.5 24.4624 6.268 25.5257 6.268C27.3044 6.268 28.677 6.82867 29.6437 7.95C30.6297 9.07133 31.1227 10.7147 31.1227 12.88V21H27.4397V13.228C27.4397 11.9907 27.1884 11.0433 26.6857 10.386C26.2024 9.72867 25.429 9.4 24.3657 9.4C23.3217 9.4 22.4517 9.76733 21.7557 10.502C21.079 11.2367 20.7407 12.2613 20.7407 13.576V21H17.0287ZM40.4143 21.348C39.0223 21.348 37.7656 21.029 36.6443 20.391C35.5423 19.753 34.6626 18.8733 34.0053 17.752C33.3673 16.6113 33.0483 15.2967 33.0483 13.808C33.0483 12.3193 33.3769 11.0143 34.0343 9.893C34.6916 8.75233 35.5713 7.863 36.6733 7.225C37.7946 6.587 39.0513 6.268 40.4433 6.268C41.8159 6.268 43.0533 6.587 44.1553 7.225C45.2766 7.863 46.1563 8.75233 46.7943 9.893C47.4516 11.0143 47.7803 12.3193 47.7803 13.808C47.7803 15.2967 47.4516 16.6113 46.7943 17.752C46.1563 18.8733 45.2766 19.753 44.1553 20.391C43.0339 21.029 41.7869 21.348 40.4143 21.348ZM40.4143 18.129C41.3809 18.129 42.2219 17.7713 42.9373 17.056C43.6526 16.3213 44.0103 15.2387 44.0103 13.808C44.0103 12.3773 43.6526 11.3043 42.9373 10.589C42.2219 9.85433 41.3906 9.487 40.4433 9.487C39.4573 9.487 38.6066 9.85433 37.8913 10.589C37.1953 11.3043 36.8473 12.3773 36.8473 13.808C36.8473 15.2387 37.1953 16.3213 37.8913 17.056C38.6066 17.7713 39.4476 18.129 40.4143 18.129ZM52.2424 21L48.0374 6.616H51.7204L54.2144 16.969L57.1144 6.616H61.2324L64.1324 16.969L66.6554 6.616H70.3384L66.1044 21H62.2474L59.1734 10.241L56.0994 21H52.2424ZM77.4654 21.348C76.1894 21.348 75.0681 21.145 74.1014 20.739C73.1347 20.3137 72.3614 19.7337 71.7814 18.999C71.2014 18.2643 70.8534 17.4137 70.7374 16.447H74.4784C74.5944 17.0077 74.9037 17.491 75.4064 17.897C75.9284 18.2837 76.5954 18.477 77.4074 18.477C78.2194 18.477 78.8091 18.3127 79.1764 17.984C79.5631 17.6553 79.7564 17.2783 79.7564 16.853C79.7564 16.2343 79.4857 15.8187 78.9444 15.606C78.4031 15.374 77.6491 15.1517 76.6824 14.939C76.0637 14.8037 75.4354 14.6393 74.7974 14.446C74.1594 14.2527 73.5697 14.011 73.0284 13.721C72.5064 13.4117 72.0811 13.025 71.7524 12.561C71.4237 12.0777 71.2594 11.488 71.2594 10.792C71.2594 9.516 71.7621 8.443 72.7674 7.573C73.7921 6.703 75.2227 6.268 77.0594 6.268C78.7607 6.268 80.1141 6.66433 81.1194 7.457C82.1441 8.24967 82.7531 9.342 82.9464 10.734H79.4374C79.2247 9.67067 78.4224 9.139 77.0304 9.139C76.3344 9.139 75.7931 9.27433 75.4064 9.545C75.0391 9.81567 74.8554 10.154 74.8554 10.56C74.8554 10.9853 75.1357 11.3237 75.6964 11.575C76.2571 11.8263 77.0014 12.0583 77.9294 12.271C78.9347 12.503 79.8531 12.764 80.6844 13.054C81.5351 13.3247 82.2117 13.7403 82.7144 14.301C83.2171 14.8423 83.4684 15.6253 83.4684 16.65C83.4877 17.5393 83.2557 18.3417 82.7724 19.057C82.2891 19.7723 81.5931 20.333 80.6844 20.739C79.7757 21.145 78.7027 21.348 77.4654 21.348ZM93.1449 27.38L96.4799 20.043H95.6099L90.0129 6.616H94.0439L98.0749 16.737L102.28 6.616H106.224L97.0889 27.38H93.1449ZM113.146 21.348C111.754 21.348 110.498 21.029 109.376 20.391C108.274 19.753 107.395 18.8733 106.737 17.752C106.099 16.6113 105.78 15.2967 105.78 13.808C105.78 12.3193 106.109 11.0143 106.766 9.893C107.424 8.75233 108.303 7.863 109.405 7.225C110.527 6.587 111.783 6.268 113.175 6.268C114.548 6.268 115.785 6.587 116.887 7.225C118.009 7.863 118.888 8.75233 119.526 9.893C120.184 11.0143 120.512 12.3193 120.512 13.808C120.512 15.2967 120.184 16.6113 119.526 17.752C118.888 18.8733 118.009 19.753 116.887 20.391C115.766 21.029 114.519 21.348 113.146 21.348ZM113.146 18.129C114.113 18.129 114.954 17.7713 115.669 17.056C116.385 16.3213 116.742 15.2387 116.742 13.808C116.742 12.3773 116.385 11.3043 115.669 10.589C114.954 9.85433 114.123 9.487 113.175 9.487C112.189 9.487 111.339 9.85433 110.623 10.589C109.927 11.3043 109.579 12.3773 109.579 13.808C109.579 15.2387 109.927 16.3213 110.623 17.056C111.339 17.7713 112.18 18.129 113.146 18.129ZM128.065 21.348C126.267 21.348 124.875 20.7873 123.889 19.666C122.923 18.5447 122.439 16.9013 122.439 14.736V6.616H126.122V14.388C126.122 15.6253 126.374 16.5727 126.876 17.23C127.379 17.8873 128.172 18.216 129.254 18.216C130.279 18.216 131.12 17.8487 131.777 17.114C132.454 16.3793 132.792 15.3547 132.792 14.04V6.616H136.504V21H133.227L132.937 18.564C132.493 19.4147 131.845 20.0913 130.994 20.594C130.163 21.0967 129.187 21.348 128.065 21.348ZM144.905 21V6.616H148.182L148.501 8.559C148.965 7.863 149.574 7.312 150.328 6.906C151.101 6.48067 151.991 6.268 152.996 6.268C155.219 6.268 156.795 7.12833 157.723 8.849C158.245 8.05633 158.941 7.428 159.811 6.964C160.7 6.5 161.667 6.268 162.711 6.268C164.586 6.268 166.027 6.82867 167.032 7.95C168.037 9.07133 168.54 10.7147 168.54 12.88V21H164.828V13.228C164.828 11.9907 164.586 11.0433 164.103 10.386C163.639 9.72867 162.914 9.4 161.928 9.4C160.923 9.4 160.111 9.76733 159.492 10.502C158.893 11.2367 158.593 12.2613 158.593 13.576V21H154.881V13.228C154.881 11.9907 154.639 11.0433 154.156 10.386C153.673 9.72867 152.928 9.4 151.923 9.4C150.937 9.4 150.135 9.76733 149.516 10.502C148.917 11.2367 148.617 12.2613 148.617 13.576V21H144.905ZM172.905 4.383C172.229 4.383 171.668 4.18 171.223 3.774C170.798 3.368 170.585 2.85567 170.585 2.237C170.585 1.61833 170.798 1.11567 171.223 0.728998C171.668 0.322999 172.229 0.119999 172.905 0.119999C173.582 0.119999 174.133 0.322999 174.558 0.728998C175.003 1.11567 175.225 1.61833 175.225 2.237C175.225 2.85567 175.003 3.368 174.558 3.774C174.133 4.18 173.582 4.383 172.905 4.383ZM171.049 21V6.616H174.761V21H171.049ZM183.566 16.708C182.87 16.708 182.222 16.6307 181.623 16.476L180.55 17.549C180.878 17.723 181.323 17.868 181.884 17.984C182.444 18.1 183.353 18.216 184.61 18.332C186.524 18.506 187.916 18.9603 188.786 19.695C189.656 20.4297 190.091 21.4447 190.091 22.74C190.091 23.5907 189.859 24.393 189.395 25.147C188.931 25.9203 188.215 26.539 187.249 27.003C186.282 27.4863 185.045 27.728 183.537 27.728C181.487 27.728 179.834 27.3413 178.578 26.568C177.321 25.814 176.693 24.6733 176.693 23.146C176.693 21.8507 177.321 20.7293 178.578 19.782C178.191 19.608 177.853 19.4243 177.563 19.231C177.292 19.0377 177.05 18.8347 176.838 18.622V17.955L179.361 15.287C178.239 14.301 177.679 13.0347 177.679 11.488C177.679 10.5213 177.911 9.64167 178.375 8.849C178.858 8.05633 179.535 7.428 180.405 6.964C181.275 6.5 182.328 6.268 183.566 6.268C184.378 6.268 185.132 6.384 185.828 6.616H191.28V8.878L188.815 9.052C189.201 9.78667 189.395 10.5987 189.395 11.488C189.395 12.4547 189.163 13.3343 188.699 14.127C188.235 14.9197 187.558 15.548 186.669 16.012C185.799 16.476 184.764 16.708 183.566 16.708ZM183.566 13.866C184.32 13.866 184.938 13.663 185.422 13.257C185.924 12.851 186.176 12.271 186.176 11.517C186.176 10.763 185.924 10.183 185.422 9.777C184.938 9.371 184.32 9.168 183.566 9.168C182.773 9.168 182.135 9.371 181.652 9.777C181.168 10.183 180.927 10.763 180.927 11.517C180.927 12.271 181.168 12.851 181.652 13.257C182.135 13.663 182.773 13.866 183.566 13.866ZM180.086 22.769C180.086 23.4843 180.414 24.016 181.072 24.364C181.748 24.7313 182.57 24.915 183.537 24.915C184.465 24.915 185.219 24.7217 185.799 24.335C186.379 23.9677 186.669 23.465 186.669 22.827C186.669 22.305 186.475 21.87 186.089 21.522C185.721 21.174 184.977 20.9613 183.856 20.884C183.063 20.826 182.328 20.739 181.652 20.623C181.091 20.9323 180.685 21.2707 180.434 21.638C180.202 22.0053 180.086 22.3823 180.086 22.769ZM192.826 21V0.119999H196.538V8.82C197.022 8.02733 197.669 7.40867 198.481 6.964C199.313 6.5 200.26 6.268 201.323 6.268C203.102 6.268 204.475 6.82867 205.441 7.95C206.427 9.07133 206.92 10.7147 206.92 12.88V21H203.237V13.228C203.237 11.9907 202.986 11.0433 202.483 10.386C202 9.72867 201.227 9.4 200.163 9.4C199.119 9.4 198.249 9.76733 197.553 10.502C196.877 11.2367 196.538 12.2613 196.538 13.576V21H192.826ZM215.719 21C214.211 21 213.003 20.6327 212.094 19.898C211.185 19.1633 210.731 17.8583 210.731 15.983V9.719H208.266V6.616H210.731L211.166 2.759H214.443V6.616H218.329V9.719H214.443V16.012C214.443 16.708 214.588 17.1913 214.878 17.462C215.187 17.7133 215.709 17.839 216.444 17.839H218.242V21H215.719ZM226.106 21V0.119999H229.818V21H226.106ZM234.452 4.383C233.775 4.383 233.215 4.18 232.77 3.774C232.345 3.368 232.132 2.85567 232.132 2.237C232.132 1.61833 232.345 1.11567 232.77 0.728998C233.215 0.322999 233.775 0.119999 234.452 0.119999C235.129 0.119999 235.68 0.322999 236.105 0.728998C236.55 1.11567 236.772 1.61833 236.772 2.237C236.772 2.85567 236.55 3.368 236.105 3.774C235.68 4.18 235.129 4.383 234.452 4.383ZM232.596 21V6.616H236.308V21H232.596ZM239.023 21V0.119999H242.735V12.445L247.839 6.616H252.247L246.36 13.17L253.204 21H248.564L242.735 13.779V21H239.023ZM260.145 21.348C258.695 21.348 257.409 21.0387 256.288 20.42C255.166 19.8013 254.287 18.9313 253.649 17.81C253.011 16.6887 252.692 15.3933 252.692 13.924C252.692 12.4353 253.001 11.111 253.62 9.951C254.258 8.791 255.128 7.892 256.23 7.254C257.351 6.59667 258.666 6.268 260.174 6.268C261.585 6.268 262.832 6.57733 263.915 7.196C264.997 7.81467 265.838 8.66533 266.438 9.748C267.056 10.8113 267.366 12.0003 267.366 13.315C267.366 13.5277 267.356 13.75 267.337 13.982C267.337 14.214 267.327 14.4557 267.308 14.707H256.375C256.452 15.8283 256.839 16.708 257.535 17.346C258.25 17.984 259.11 18.303 260.116 18.303C260.87 18.303 261.498 18.1387 262.001 17.81C262.523 17.462 262.909 17.0173 263.161 16.476H266.931C266.66 17.3847 266.206 18.216 265.568 18.97C264.949 19.7047 264.176 20.2847 263.248 20.71C262.339 21.1353 261.305 21.348 260.145 21.348ZM260.174 9.284C259.265 9.284 258.463 9.545 257.767 10.067C257.071 10.5697 256.626 11.343 256.433 12.387H263.596C263.538 11.4397 263.19 10.6857 262.552 10.125C261.914 9.56433 261.121 9.284 260.174 9.284Z" fill="white"/>
</svg>
