<svg width="148" height="16" viewBox="0 0 148 16" fill="none" xmlns="http://www.w3.org/2000/svg">
<path d="M4.47309 15.5884V2.69438H0.126086V0.888378H11.0251V2.69438H6.69909V15.5884H4.47309ZM12.6042 15.5884V0.468378H14.8302V6.85238C15.1802 6.25038 15.6632 5.78138 16.2792 5.44538C16.9092 5.09538 17.6022 4.92038 18.3582 4.92038C19.6042 4.92038 20.5842 5.31238 21.2982 6.09638C22.0122 6.88038 22.3692 8.04938 22.3692 9.60338V15.5884H20.1642V9.83438C20.1642 7.81838 19.3592 6.81038 17.7492 6.81038C16.9092 6.81038 16.2092 7.10438 15.6492 7.69238C15.1032 8.28038 14.8302 9.12038 14.8302 10.2124V15.5884H12.6042ZM29.4429 15.8404C28.4209 15.8404 27.5109 15.6164 26.7129 15.1684C25.9289 14.7064 25.3129 14.0694 24.8649 13.2574C24.4169 12.4454 24.1929 11.5004 24.1929 10.4224C24.1929 9.33038 24.4099 8.37138 24.8439 7.54538C25.2919 6.71938 25.9079 6.07538 26.6919 5.61338C27.4899 5.15138 28.4139 4.92038 29.4639 4.92038C30.4859 4.92038 31.3749 5.15138 32.1309 5.61338C32.8869 6.06138 33.4749 6.66338 33.8949 7.41938C34.3149 8.17538 34.5249 9.00838 34.5249 9.91838C34.5249 10.0584 34.5179 10.2124 34.5039 10.3804C34.5039 10.5344 34.4969 10.7094 34.4829 10.9054H26.3769C26.4469 11.9134 26.7759 12.6834 27.3639 13.2154C27.9659 13.7334 28.6589 13.9924 29.4429 13.9924C30.0729 13.9924 30.5979 13.8524 31.0179 13.5724C31.4519 13.2784 31.7739 12.8864 31.9839 12.3964H34.2099C33.9299 13.3764 33.3699 14.1954 32.5299 14.8534C31.7039 15.5114 30.6749 15.8404 29.4429 15.8404ZM29.4429 6.74738C28.7009 6.74738 28.0429 6.97138 27.4689 7.41938C26.8949 7.85338 26.5449 8.51138 26.4189 9.39338H32.2989C32.2569 8.58138 31.9699 7.93738 31.4379 7.46138C30.9059 6.98538 30.2409 6.74738 29.4429 6.74738ZM40.4246 15.5884L45.8426 0.888378H48.2786L53.6546 15.5884H51.3026L50.0426 11.9974H44.0366L42.7766 15.5884H40.4246ZM44.6666 10.2334H49.4126L47.0396 3.53438L44.6666 10.2334ZM55.2006 15.5884V0.468378H57.4266V15.5884H55.2006ZM64.6975 15.8404C63.6755 15.8404 62.7655 15.6164 61.9675 15.1684C61.1835 14.7064 60.5675 14.0694 60.1195 13.2574C59.6715 12.4454 59.4475 11.5004 59.4475 10.4224C59.4475 9.33038 59.6645 8.37138 60.0985 7.54538C60.5465 6.71938 61.1625 6.07538 61.9465 5.61338C62.7445 5.15138 63.6685 4.92038 64.7185 4.92038C65.7405 4.92038 66.6295 5.15138 67.3855 5.61338C68.1415 6.06138 68.7295 6.66338 69.1495 7.41938C69.5695 8.17538 69.7795 9.00838 69.7795 9.91838C69.7795 10.0584 69.7725 10.2124 69.7585 10.3804C69.7585 10.5344 69.7515 10.7094 69.7375 10.9054H61.6315C61.7015 11.9134 62.0305 12.6834 62.6185 13.2154C63.2205 13.7334 63.9135 13.9924 64.6975 13.9924C65.3275 13.9924 65.8525 13.8524 66.2725 13.5724C66.7065 13.2784 67.0285 12.8864 67.2385 12.3964H69.4645C69.1845 13.3764 68.6245 14.1954 67.7845 14.8534C66.9585 15.5114 65.9295 15.8404 64.6975 15.8404ZM64.6975 6.74738C63.9555 6.74738 63.2975 6.97138 62.7235 7.41938C62.1495 7.85338 61.7995 8.51138 61.6735 9.39338H67.5535C67.5115 8.58138 67.2245 7.93738 66.6925 7.46138C66.1605 6.98538 65.4955 6.74738 64.6975 6.74738ZM70.0459 15.5884L73.7419 10.3804L70.0459 5.17238H72.4189L75.2119 9.16238L77.9839 5.17238H80.3779L76.6819 10.3804L80.3779 15.5884H77.9839L75.2119 11.5984L72.4189 15.5884H70.0459ZM85.1541 15.8404C84.2721 15.8404 83.5441 15.6934 82.9701 15.3994C82.3961 15.1054 81.9691 14.7204 81.6891 14.2444C81.4091 13.7544 81.2691 13.2224 81.2691 12.6484C81.2691 11.6404 81.6611 10.8424 82.4451 10.2544C83.2291 9.66638 84.3491 9.37238 85.8051 9.37238H88.5351V9.18338C88.5351 8.37138 88.3111 7.76238 87.8631 7.35638C87.4291 6.95038 86.8621 6.74738 86.1621 6.74738C85.5461 6.74738 85.0071 6.90138 84.5451 7.20938C84.0971 7.50338 83.8241 7.94438 83.7261 8.53238H81.5001C81.5701 7.77638 81.8221 7.13238 82.2561 6.60038C82.7041 6.05438 83.2641 5.64138 83.9361 5.36138C84.6221 5.06738 85.3711 4.92038 86.1831 4.92038C87.6391 4.92038 88.7661 5.30538 89.5641 6.07538C90.3621 6.83138 90.7611 7.86738 90.7611 9.18338V15.5884H88.8291L88.6401 13.8034C88.3461 14.3774 87.9191 14.8604 87.3591 15.2524C86.7991 15.6444 86.0641 15.8404 85.1541 15.8404ZM85.5951 14.0344C86.1971 14.0344 86.7011 13.8944 87.1071 13.6144C87.5271 13.3204 87.8491 12.9354 88.0731 12.4594C88.3111 11.9834 88.4581 11.4584 88.5141 10.8844H86.0361C85.1541 10.8844 84.5241 11.0384 84.1461 11.3464C83.7821 11.6544 83.6001 12.0394 83.6001 12.5014C83.6001 12.9774 83.7751 13.3554 84.1251 13.6354C84.4891 13.9014 84.9791 14.0344 85.5951 14.0344ZM102.743 15.8404C101.665 15.8404 100.72 15.6514 99.9076 15.2734C99.0956 14.8954 98.4586 14.3564 97.9966 13.6564C97.5486 12.9564 97.3176 12.1234 97.3036 11.1574H99.6556C99.6696 11.9414 99.9426 12.6064 100.475 13.1524C101.007 13.6984 101.756 13.9714 102.722 13.9714C103.576 13.9714 104.241 13.7684 104.717 13.3624C105.207 12.9424 105.452 12.4104 105.452 11.7664C105.452 11.2484 105.333 10.8284 105.095 10.5064C104.871 10.1844 104.556 9.91838 104.15 9.70838C103.758 9.49838 103.303 9.30938 102.785 9.14138C102.267 8.97338 101.721 8.79138 101.147 8.59538C100.013 8.21738 99.1586 7.72738 98.5846 7.12538C98.0246 6.52338 97.7446 5.73238 97.7446 4.75238C97.7306 3.92638 97.9196 3.20538 98.3116 2.58938C98.7176 1.97338 99.2776 1.49738 99.9916 1.16138C100.72 0.811378 101.567 0.636379 102.533 0.636379C103.485 0.636379 104.318 0.811378 105.032 1.16138C105.76 1.51138 106.327 2.00138 106.733 2.63138C107.139 3.24738 107.349 3.96838 107.363 4.79438H105.011C105.011 4.41638 104.913 4.05938 104.717 3.72338C104.521 3.37338 104.234 3.08638 103.856 2.86238C103.478 2.63838 103.016 2.52638 102.47 2.52638C101.77 2.51238 101.189 2.68738 100.727 3.05138C100.279 3.41538 100.055 3.91938 100.055 4.56338C100.055 5.13738 100.223 5.57838 100.559 5.88638C100.895 6.19438 101.357 6.45338 101.945 6.66338C102.533 6.85938 103.205 7.09038 103.961 7.35638C104.689 7.59438 105.34 7.88138 105.914 8.21738C106.488 8.55338 106.943 8.99438 107.279 9.54038C107.629 10.0864 107.804 10.7794 107.804 11.6194C107.804 12.3614 107.615 13.0544 107.237 13.6984C106.859 14.3284 106.292 14.8464 105.536 15.2524C104.78 15.6444 103.849 15.8404 102.743 15.8404ZM109.733 15.5884V0.468378H111.959V6.85238C112.309 6.25038 112.792 5.78138 113.408 5.44538C114.038 5.09538 114.731 4.92038 115.487 4.92038C116.733 4.92038 117.713 5.31238 118.427 6.09638C119.141 6.88038 119.498 8.04938 119.498 9.60338V15.5884H117.293V9.83438C117.293 7.81838 116.488 6.81038 114.878 6.81038C114.038 6.81038 113.338 7.10438 112.778 7.69238C112.232 8.28038 111.959 9.12038 111.959 10.2124V15.5884H109.733ZM126.572 15.8404C125.578 15.8404 124.682 15.6164 123.884 15.1684C123.1 14.7064 122.477 14.0694 122.015 13.2574C121.553 12.4314 121.322 11.4724 121.322 10.3804C121.322 9.28838 121.553 8.33638 122.015 7.52438C122.491 6.69838 123.128 6.06138 123.926 5.61338C124.724 5.15138 125.613 4.92038 126.593 4.92038C127.587 4.92038 128.476 5.15138 129.26 5.61338C130.058 6.06138 130.688 6.69838 131.15 7.52438C131.626 8.33638 131.864 9.28838 131.864 10.3804C131.864 11.4724 131.626 12.4314 131.15 13.2574C130.688 14.0694 130.058 14.7064 129.26 15.1684C128.462 15.6164 127.566 15.8404 126.572 15.8404ZM126.572 13.9294C127.104 13.9294 127.594 13.7964 128.042 13.5304C128.504 13.2644 128.875 12.8724 129.155 12.3544C129.435 11.8224 129.575 11.1644 129.575 10.3804C129.575 9.59638 129.435 8.94538 129.155 8.42738C128.889 7.89538 128.525 7.49638 128.063 7.23038C127.615 6.96438 127.125 6.83138 126.593 6.83138C126.061 6.83138 125.564 6.96438 125.102 7.23038C124.654 7.49638 124.29 7.89538 124.01 8.42738C123.73 8.94538 123.59 9.59638 123.59 10.3804C123.59 11.1644 123.73 11.8224 124.01 12.3544C124.29 12.8724 124.654 13.2644 125.102 13.5304C125.55 13.7964 126.04 13.9294 126.572 13.9294ZM135.541 15.5884L132.475 5.17238H134.701L136.717 13.0264L138.985 5.17238H141.463L143.731 13.0264L145.747 5.17238H147.973L144.907 15.5884H142.618L140.224 7.39838L137.83 15.5884H135.541Z" fill="white"/>
</svg>
