<svg width="181" height="21" viewBox="0 0 181 21" fill="none" xmlns="http://www.w3.org/2000/svg">
<path d="M4.25084 15.6094L0.281836 0.888378H2.67584L5.59484 13.0684L8.95484 0.888378H11.4118L14.6668 13.0684L17.5858 0.888378H19.9798L15.9478 15.5884H13.3438L10.1308 4.05938L6.81284 15.5884L4.25084 15.6094ZM25.3033 15.8404C24.2813 15.8404 23.3713 15.6164 22.5733 15.1684C21.7893 14.7064 21.1733 14.0694 20.7253 13.2574C20.2773 12.4454 20.0533 11.5004 20.0533 10.4224C20.0533 9.33038 20.2703 8.37138 20.7043 7.54538C21.1523 6.71938 21.7683 6.07538 22.5523 5.61338C23.3503 5.15138 24.2743 4.92038 25.3243 4.92038C26.3463 4.92038 27.2353 5.15138 27.9913 5.61338C28.7473 6.06138 29.3353 6.66338 29.7553 7.41938C30.1753 8.17538 30.3853 9.00838 30.3853 9.91838C30.3853 10.0584 30.3783 10.2124 30.3643 10.3804C30.3643 10.5344 30.3573 10.7094 30.3433 10.9054H22.2373C22.3073 11.9134 22.6363 12.6834 23.2243 13.2154C23.8263 13.7334 24.5193 13.9924 25.3033 13.9924C25.9333 13.9924 26.4583 13.8524 26.8783 13.5724C27.3123 13.2784 27.6343 12.8864 27.8443 12.3964H30.0703C29.7903 13.3764 29.2303 14.1954 28.3903 14.8534C27.5643 15.5114 26.5353 15.8404 25.3033 15.8404ZM25.3033 6.74738C24.5613 6.74738 23.9033 6.97138 23.3293 7.41938C22.7553 7.85338 22.4053 8.51138 22.2793 9.39338H28.1593C28.1173 8.58138 27.8303 7.93738 27.2983 7.46138C26.7663 6.98538 26.1013 6.74738 25.3033 6.74738ZM37.147 15.8404C36.125 15.8404 35.215 15.6164 34.417 15.1684C33.633 14.7064 33.017 14.0694 32.569 13.2574C32.121 12.4454 31.897 11.5004 31.897 10.4224C31.897 9.33038 32.114 8.37138 32.548 7.54538C32.996 6.71938 33.612 6.07538 34.396 5.61338C35.194 5.15138 36.118 4.92038 37.168 4.92038C38.19 4.92038 39.079 5.15138 39.835 5.61338C40.591 6.06138 41.179 6.66338 41.599 7.41938C42.019 8.17538 42.229 9.00838 42.229 9.91838C42.229 10.0584 42.222 10.2124 42.208 10.3804C42.208 10.5344 42.201 10.7094 42.187 10.9054H34.081C34.151 11.9134 34.48 12.6834 35.068 13.2154C35.67 13.7334 36.363 13.9924 37.147 13.9924C37.777 13.9924 38.302 13.8524 38.722 13.5724C39.156 13.2784 39.478 12.8864 39.688 12.3964H41.914C41.634 13.3764 41.074 14.1954 40.234 14.8534C39.408 15.5114 38.379 15.8404 37.147 15.8404ZM37.147 6.74738C36.405 6.74738 35.747 6.97138 35.173 7.41938C34.599 7.85338 34.249 8.51138 34.123 9.39338H40.003C39.961 8.58138 39.674 7.93738 39.142 7.46138C38.61 6.98538 37.945 6.74738 37.147 6.74738ZM44.1187 15.5884V0.468378H46.3447V9.47738L50.3347 5.17238H53.0017L48.5707 9.89738L53.6527 15.5884H50.8387L46.3447 10.2544V15.5884H44.1187ZM54.9575 15.5884V0.468378H57.1835V15.5884H54.9575ZM60.8004 20.2084L63.2994 14.7274H62.6904L58.5744 5.17238H60.9894L64.1814 12.8794L67.5204 5.17238H69.8724L63.1524 20.2084H60.8004ZM76.2375 15.5884V0.888378H78.8625L83.8395 10.6744L88.7955 0.888378H91.4205V15.5884H89.1945V4.73138L84.7005 13.4884H82.9785L78.4635 4.75238V15.5884H76.2375ZM98.7754 15.8404C97.7814 15.8404 96.8854 15.6164 96.0874 15.1684C95.3034 14.7064 94.6804 14.0694 94.2184 13.2574C93.7564 12.4314 93.5254 11.4724 93.5254 10.3804C93.5254 9.28838 93.7564 8.33638 94.2184 7.52438C94.6944 6.69838 95.3314 6.06138 96.1294 5.61338C96.9274 5.15138 97.8164 4.92038 98.7964 4.92038C99.7904 4.92038 100.679 5.15138 101.463 5.61338C102.261 6.06138 102.891 6.69838 103.353 7.52438C103.829 8.33638 104.067 9.28838 104.067 10.3804C104.067 11.4724 103.829 12.4314 103.353 13.2574C102.891 14.0694 102.261 14.7064 101.463 15.1684C100.665 15.6164 99.7694 15.8404 98.7754 15.8404ZM98.7754 13.9294C99.3074 13.9294 99.7974 13.7964 100.245 13.5304C100.707 13.2644 101.078 12.8724 101.358 12.3544C101.638 11.8224 101.778 11.1644 101.778 10.3804C101.778 9.59638 101.638 8.94538 101.358 8.42738C101.092 7.89538 100.728 7.49638 100.266 7.23038C99.8184 6.96438 99.3284 6.83138 98.7964 6.83138C98.2644 6.83138 97.7674 6.96438 97.3054 7.23038C96.8574 7.49638 96.4934 7.89538 96.2134 8.42738C95.9334 8.94538 95.7934 9.59638 95.7934 10.3804C95.7934 11.1644 95.9334 11.8224 96.2134 12.3544C96.4934 12.8724 96.8574 13.2644 97.3054 13.5304C97.7534 13.7964 98.2434 13.9294 98.7754 13.9294ZM110.013 15.5884C108.991 15.5884 108.179 15.3434 107.577 14.8534C106.975 14.3494 106.674 13.4604 106.674 12.1864V7.04138H104.889V5.17238H106.674L106.947 2.52638H108.9V5.17238H111.84V7.04138H108.9V12.1864C108.9 12.7604 109.019 13.1594 109.257 13.3834C109.509 13.5934 109.936 13.6984 110.538 13.6984H111.735V15.5884H110.013ZM114.975 3.19838C114.555 3.19838 114.205 3.07238 113.925 2.82038C113.659 2.55438 113.526 2.22538 113.526 1.83338C113.526 1.44138 113.659 1.11938 113.925 0.867378C114.205 0.601378 114.555 0.468378 114.975 0.468378C115.395 0.468378 115.738 0.601378 116.004 0.867378C116.284 1.11938 116.424 1.44138 116.424 1.83338C116.424 2.22538 116.284 2.55438 116.004 2.82038C115.738 3.07238 115.395 3.19838 114.975 3.19838ZM113.862 15.5884V5.17238H116.088V15.5884H113.862ZM121.525 15.5884L117.619 5.17238H119.95L122.848 13.4674L125.746 5.17238H128.056L124.171 15.5884H121.525ZM132.399 15.8404C131.517 15.8404 130.789 15.6934 130.215 15.3994C129.641 15.1054 129.214 14.7204 128.934 14.2444C128.654 13.7544 128.514 13.2224 128.514 12.6484C128.514 11.6404 128.906 10.8424 129.69 10.2544C130.474 9.66638 131.594 9.37238 133.05 9.37238H135.78V9.18338C135.78 8.37138 135.556 7.76238 135.108 7.35638C134.674 6.95038 134.107 6.74738 133.407 6.74738C132.791 6.74738 132.252 6.90138 131.79 7.20938C131.342 7.50338 131.069 7.94438 130.971 8.53238H128.745C128.815 7.77638 129.067 7.13238 129.501 6.60038C129.949 6.05438 130.509 5.64138 131.181 5.36138C131.867 5.06738 132.616 4.92038 133.428 4.92038C134.884 4.92038 136.011 5.30538 136.809 6.07538C137.607 6.83138 138.006 7.86738 138.006 9.18338V15.5884H136.074L135.885 13.8034C135.591 14.3774 135.164 14.8604 134.604 15.2524C134.044 15.6444 133.309 15.8404 132.399 15.8404ZM132.84 14.0344C133.442 14.0344 133.946 13.8944 134.352 13.6144C134.772 13.3204 135.094 12.9354 135.318 12.4594C135.556 11.9834 135.703 11.4584 135.759 10.8844H133.281C132.399 10.8844 131.769 11.0384 131.391 11.3464C131.027 11.6544 130.845 12.0394 130.845 12.5014C130.845 12.9774 131.02 13.3554 131.37 13.6354C131.734 13.9014 132.224 14.0344 132.84 14.0344ZM144.344 15.5884C143.322 15.5884 142.51 15.3434 141.908 14.8534C141.306 14.3494 141.005 13.4604 141.005 12.1864V7.04138H139.22V5.17238H141.005L141.278 2.52638H143.231V5.17238H146.171V7.04138H143.231V12.1864C143.231 12.7604 143.35 13.1594 143.588 13.3834C143.84 13.5934 144.267 13.6984 144.869 13.6984H146.066V15.5884H144.344ZM149.307 3.19838C148.887 3.19838 148.537 3.07238 148.257 2.82038C147.991 2.55438 147.858 2.22538 147.858 1.83338C147.858 1.44138 147.991 1.11938 148.257 0.867378C148.537 0.601378 148.887 0.468378 149.307 0.468378C149.727 0.468378 150.07 0.601378 150.336 0.867378C150.616 1.11938 150.756 1.44138 150.756 1.83338C150.756 2.22538 150.616 2.55438 150.336 2.82038C150.07 3.07238 149.727 3.19838 149.307 3.19838ZM148.194 15.5884V5.17238H150.42V15.5884H148.194ZM157.81 15.8404C156.816 15.8404 155.92 15.6164 155.122 15.1684C154.338 14.7064 153.715 14.0694 153.253 13.2574C152.791 12.4314 152.56 11.4724 152.56 10.3804C152.56 9.28838 152.791 8.33638 153.253 7.52438C153.729 6.69838 154.366 6.06138 155.164 5.61338C155.962 5.15138 156.851 4.92038 157.831 4.92038C158.825 4.92038 159.714 5.15138 160.498 5.61338C161.296 6.06138 161.926 6.69838 162.388 7.52438C162.864 8.33638 163.102 9.28838 163.102 10.3804C163.102 11.4724 162.864 12.4314 162.388 13.2574C161.926 14.0694 161.296 14.7064 160.498 15.1684C159.7 15.6164 158.804 15.8404 157.81 15.8404ZM157.81 13.9294C158.342 13.9294 158.832 13.7964 159.28 13.5304C159.742 13.2644 160.113 12.8724 160.393 12.3544C160.673 11.8224 160.813 11.1644 160.813 10.3804C160.813 9.59638 160.673 8.94538 160.393 8.42738C160.127 7.89538 159.763 7.49638 159.301 7.23038C158.853 6.96438 158.363 6.83138 157.831 6.83138C157.299 6.83138 156.802 6.96438 156.34 7.23038C155.892 7.49638 155.528 7.89538 155.248 8.42738C154.968 8.94538 154.828 9.59638 154.828 10.3804C154.828 11.1644 154.968 11.8224 155.248 12.3544C155.528 12.8724 155.892 13.2644 156.34 13.5304C156.788 13.7964 157.278 13.9294 157.81 13.9294ZM165.971 15.7144C165.551 15.7144 165.201 15.5814 164.921 15.3154C164.655 15.0354 164.522 14.7064 164.522 14.3284C164.522 13.9364 164.655 13.6074 164.921 13.3414C165.201 13.0614 165.551 12.9214 165.971 12.9214C166.391 12.9214 166.734 13.0614 167 13.3414C167.266 13.6074 167.399 13.9364 167.399 14.3284C167.399 14.7064 167.266 15.0354 167 15.3154C166.734 15.5814 166.391 15.7144 165.971 15.7144ZM172.414 15.7144C171.994 15.7144 171.644 15.5814 171.364 15.3154C171.098 15.0354 170.965 14.7064 170.965 14.3284C170.965 13.9364 171.098 13.6074 171.364 13.3414C171.644 13.0614 171.994 12.9214 172.414 12.9214C172.834 12.9214 173.177 13.0614 173.443 13.3414C173.709 13.6074 173.842 13.9364 173.842 14.3284C173.842 14.7064 173.709 15.0354 173.443 15.3154C173.177 15.5814 172.834 15.7144 172.414 15.7144ZM178.857 15.7144C178.437 15.7144 178.087 15.5814 177.807 15.3154C177.541 15.0354 177.408 14.7064 177.408 14.3284C177.408 13.9364 177.541 13.6074 177.807 13.3414C178.087 13.0614 178.437 12.9214 178.857 12.9214C179.277 12.9214 179.62 13.0614 179.886 13.3414C180.152 13.6074 180.285 13.9364 180.285 14.3284C180.285 14.7064 180.152 15.0354 179.886 15.3154C179.62 15.5814 179.277 15.7144 178.857 15.7144Z" fill="white"/>
</svg>
