<svg width="187" height="21" viewBox="0 0 187 21" fill="none" xmlns="http://www.w3.org/2000/svg">
<path d="M4.10508 15.6094L0.136084 0.888378H2.53008L5.44908 13.0684L8.80908 0.888378H11.2661L14.5211 13.0684L17.4401 0.888378H19.8341L15.8021 15.5884H13.1981L9.98508 4.05938L6.66708 15.5884L4.10508 15.6094ZM25.1576 15.8404C24.1636 15.8404 23.2676 15.6164 22.4696 15.1684C21.6856 14.7064 21.0626 14.0694 20.6006 13.2574C20.1386 12.4314 19.9076 11.4724 19.9076 10.3804C19.9076 9.28838 20.1386 8.33638 20.6006 7.52438C21.0766 6.69838 21.7136 6.06138 22.5116 5.61338C23.3096 5.15138 24.1986 4.92038 25.1786 4.92038C26.1726 4.92038 27.0616 5.15138 27.8456 5.61338C28.6436 6.06138 29.2736 6.69838 29.7356 7.52438C30.2116 8.33638 30.4496 9.28838 30.4496 10.3804C30.4496 11.4724 30.2116 12.4314 29.7356 13.2574C29.2736 14.0694 28.6436 14.7064 27.8456 15.1684C27.0476 15.6164 26.1516 15.8404 25.1576 15.8404ZM25.1576 13.9294C25.6896 13.9294 26.1796 13.7964 26.6276 13.5304C27.0896 13.2644 27.4606 12.8724 27.7406 12.3544C28.0206 11.8224 28.1606 11.1644 28.1606 10.3804C28.1606 9.59638 28.0206 8.94538 27.7406 8.42738C27.4746 7.89538 27.1106 7.49638 26.6486 7.23038C26.2006 6.96438 25.7106 6.83138 25.1786 6.83138C24.6466 6.83138 24.1496 6.96438 23.6876 7.23038C23.2396 7.49638 22.8756 7.89538 22.5956 8.42738C22.3156 8.94538 22.1756 9.59638 22.1756 10.3804C22.1756 11.1644 22.3156 11.8224 22.5956 12.3544C22.8756 12.8724 23.2396 13.2644 23.6876 13.5304C24.1356 13.7964 24.6256 13.9294 25.1576 13.9294ZM32.4369 15.5884V5.17238H34.4319L34.6209 7.14638C34.9849 6.46038 35.4889 5.92138 36.1329 5.52938C36.7909 5.12338 37.5819 4.92038 38.5059 4.92038V7.25138H37.8969C37.2809 7.25138 36.7279 7.35638 36.2379 7.56638C35.7619 7.76238 35.3769 8.10538 35.0829 8.59538C34.8029 9.07138 34.6629 9.73638 34.6629 10.5904V15.5884H32.4369ZM44.4533 15.8404C43.4453 15.8404 42.5563 15.6024 41.7863 15.1264C41.0163 14.6504 40.4143 13.9994 39.9803 13.1734C39.5463 12.3474 39.3293 11.4094 39.3293 10.3594C39.3293 9.30938 39.5463 8.37838 39.9803 7.56638C40.4143 6.74038 41.0163 6.09638 41.7863 5.63438C42.5703 5.15838 43.4663 4.92038 44.4743 4.92038C45.3003 4.92038 46.0213 5.08138 46.6373 5.40338C47.2673 5.72538 47.7573 6.18038 48.1073 6.76838V0.468378H50.3333V15.5884H48.3383L48.1073 13.9714C47.7713 14.4614 47.3093 14.8954 46.7213 15.2734C46.1333 15.6514 45.3773 15.8404 44.4533 15.8404ZM44.8523 13.9084C45.8043 13.9084 46.5813 13.5794 47.1833 12.9214C47.7993 12.2634 48.1073 11.4164 48.1073 10.3804C48.1073 9.33038 47.7993 8.48338 47.1833 7.83938C46.5813 7.18138 45.8043 6.85238 44.8523 6.85238C43.9003 6.85238 43.1163 7.18138 42.5003 7.83938C41.8843 8.48338 41.5763 9.33038 41.5763 10.3804C41.5763 11.0664 41.7163 11.6754 41.9963 12.2074C42.2763 12.7394 42.6613 13.1594 43.1513 13.4674C43.6553 13.7614 44.2223 13.9084 44.8523 13.9084ZM56.8779 15.8404C55.5619 15.8404 54.4769 15.5184 53.6229 14.8744C52.7689 14.2304 52.2789 13.3764 52.1529 12.3124H54.3999C54.5119 12.7884 54.7779 13.2014 55.1979 13.5514C55.6179 13.8874 56.1709 14.0554 56.8569 14.0554C57.5289 14.0554 58.0189 13.9154 58.3269 13.6354C58.6349 13.3554 58.7889 13.0334 58.7889 12.6694C58.7889 12.1374 58.5719 11.7804 58.1379 11.5984C57.7179 11.4024 57.1299 11.2274 56.3739 11.0734C55.7859 10.9474 55.1979 10.7794 54.6099 10.5694C54.0359 10.3594 53.5529 10.0654 53.1609 9.68738C52.7829 9.29538 52.5939 8.77038 52.5939 8.11238C52.5939 7.20238 52.9439 6.44638 53.6439 5.84438C54.3439 5.22838 55.3239 4.92038 56.5839 4.92038C57.7459 4.92038 58.6839 5.20038 59.3979 5.76038C60.1259 6.32038 60.5529 7.11138 60.6789 8.13338H58.5369C58.4669 7.68538 58.2569 7.33538 57.9069 7.08338C57.5709 6.83138 57.1159 6.70538 56.5419 6.70538C55.9819 6.70538 55.5479 6.82438 55.2399 7.06238C54.9319 7.28638 54.7779 7.58038 54.7779 7.94438C54.7779 8.30838 54.9879 8.59538 55.4079 8.80538C55.8419 9.01538 56.4089 9.20438 57.1089 9.37238C57.8089 9.52638 58.4529 9.70838 59.0409 9.91838C59.6429 10.1144 60.1259 10.4084 60.4899 10.8004C60.8539 11.1924 61.0359 11.7664 61.0359 12.5224C61.0499 13.4744 60.6789 14.2654 59.9229 14.8954C59.1809 15.5254 58.1659 15.8404 56.8779 15.8404ZM73.776 15.8404C72.964 15.8404 72.243 15.6794 71.613 15.3574C70.997 15.0354 70.507 14.5804 70.143 13.9924L69.912 15.5884H67.917V0.468378H70.143V6.78938C70.479 6.29938 70.941 5.86538 71.529 5.48738C72.117 5.10938 72.873 4.92038 73.797 4.92038C74.805 4.92038 75.694 5.15838 76.464 5.63438C77.234 6.11038 77.836 6.76138 78.27 7.58738C78.718 8.41338 78.942 9.35138 78.942 10.4014C78.942 11.4514 78.718 12.3894 78.27 13.2154C77.836 14.0274 77.234 14.6714 76.464 15.1474C75.694 15.6094 74.798 15.8404 73.776 15.8404ZM73.398 13.9084C74.35 13.9084 75.134 13.5864 75.75 12.9424C76.366 12.2844 76.674 11.4304 76.674 10.3804C76.674 9.69438 76.534 9.08538 76.254 8.55338C75.974 8.02138 75.589 7.60838 75.099 7.31438C74.609 7.00638 74.042 6.85238 73.398 6.85238C72.446 6.85238 71.662 7.18138 71.046 7.83938C70.444 8.49738 70.143 9.34438 70.143 10.3804C70.143 11.4304 70.444 12.2844 71.046 12.9424C71.662 13.5864 72.446 13.9084 73.398 13.9084ZM85.8016 15.8404C84.7796 15.8404 83.8696 15.6164 83.0716 15.1684C82.2876 14.7064 81.6716 14.0694 81.2236 13.2574C80.7756 12.4454 80.5516 11.5004 80.5516 10.4224C80.5516 9.33038 80.7686 8.37138 81.2026 7.54538C81.6506 6.71938 82.2666 6.07538 83.0506 5.61338C83.8486 5.15138 84.7726 4.92038 85.8226 4.92038C86.8446 4.92038 87.7336 5.15138 88.4896 5.61338C89.2456 6.06138 89.8336 6.66338 90.2536 7.41938C90.6736 8.17538 90.8836 9.00838 90.8836 9.91838C90.8836 10.0584 90.8766 10.2124 90.8626 10.3804C90.8626 10.5344 90.8556 10.7094 90.8416 10.9054H82.7356C82.8056 11.9134 83.1346 12.6834 83.7226 13.2154C84.3246 13.7334 85.0176 13.9924 85.8016 13.9924C86.4316 13.9924 86.9566 13.8524 87.3766 13.5724C87.8106 13.2784 88.1326 12.8864 88.3426 12.3964H90.5686C90.2886 13.3764 89.7286 14.1954 88.8886 14.8534C88.0626 15.5114 87.0336 15.8404 85.8016 15.8404ZM85.8016 6.74738C85.0596 6.74738 84.4016 6.97138 83.8276 7.41938C83.2536 7.85338 82.9036 8.51138 82.7776 9.39338H88.6576C88.6156 8.58138 88.3286 7.93738 87.7966 7.46138C87.2646 6.98538 86.5996 6.74738 85.8016 6.74738ZM93.5196 20.2084L96.0186 14.7274H95.4096L91.2936 5.17238H93.7086L96.9006 12.8794L100.24 5.17238H102.592L95.8716 20.2084H93.5196ZM107.93 15.8404C106.936 15.8404 106.04 15.6164 105.242 15.1684C104.458 14.7064 103.835 14.0694 103.373 13.2574C102.911 12.4314 102.68 11.4724 102.68 10.3804C102.68 9.28838 102.911 8.33638 103.373 7.52438C103.849 6.69838 104.486 6.06138 105.284 5.61338C106.082 5.15138 106.971 4.92038 107.951 4.92038C108.945 4.92038 109.834 5.15138 110.618 5.61338C111.416 6.06138 112.046 6.69838 112.508 7.52438C112.984 8.33638 113.222 9.28838 113.222 10.3804C113.222 11.4724 112.984 12.4314 112.508 13.2574C112.046 14.0694 111.416 14.7064 110.618 15.1684C109.82 15.6164 108.924 15.8404 107.93 15.8404ZM107.93 13.9294C108.462 13.9294 108.952 13.7964 109.4 13.5304C109.862 13.2644 110.233 12.8724 110.513 12.3544C110.793 11.8224 110.933 11.1644 110.933 10.3804C110.933 9.59638 110.793 8.94538 110.513 8.42738C110.247 7.89538 109.883 7.49638 109.421 7.23038C108.973 6.96438 108.483 6.83138 107.951 6.83138C107.419 6.83138 106.922 6.96438 106.46 7.23038C106.012 7.49638 105.648 7.89538 105.368 8.42738C105.088 8.94538 104.948 9.59638 104.948 10.3804C104.948 11.1644 105.088 11.8224 105.368 12.3544C105.648 12.8724 106.012 13.2644 106.46 13.5304C106.908 13.7964 107.398 13.9294 107.93 13.9294ZM115.21 15.5884V5.17238H117.184L117.352 6.99938C117.674 6.35538 118.143 5.85138 118.759 5.48738C119.389 5.10938 120.11 4.92038 120.922 4.92038C122.182 4.92038 123.169 5.31238 123.883 6.09638C124.611 6.88038 124.975 8.04938 124.975 9.60338V15.5884H122.77V9.83438C122.77 7.81838 121.944 6.81038 120.292 6.81038C119.466 6.81038 118.78 7.10438 118.234 7.69238C117.702 8.28038 117.436 9.12038 117.436 10.2124V15.5884H115.21ZM131.922 15.8404C130.914 15.8404 130.025 15.6024 129.255 15.1264C128.485 14.6504 127.883 13.9994 127.449 13.1734C127.015 12.3474 126.798 11.4094 126.798 10.3594C126.798 9.30938 127.015 8.37838 127.449 7.56638C127.883 6.74038 128.485 6.09638 129.255 5.63438C130.039 5.15838 130.935 4.92038 131.943 4.92038C132.769 4.92038 133.49 5.08138 134.106 5.40338C134.736 5.72538 135.226 6.18038 135.576 6.76838V0.468378H137.802V15.5884H135.807L135.576 13.9714C135.24 14.4614 134.778 14.8954 134.19 15.2734C133.602 15.6514 132.846 15.8404 131.922 15.8404ZM132.321 13.9084C133.273 13.9084 134.05 13.5794 134.652 12.9214C135.268 12.2634 135.576 11.4164 135.576 10.3804C135.576 9.33038 135.268 8.48338 134.652 7.83938C134.05 7.18138 133.273 6.85238 132.321 6.85238C131.369 6.85238 130.585 7.18138 129.969 7.83938C129.353 8.48338 129.045 9.33038 129.045 10.3804C129.045 11.0664 129.185 11.6754 129.465 12.2074C129.745 12.7394 130.13 13.1594 130.62 13.4674C131.124 13.7614 131.691 13.9084 132.321 13.9084ZM148.588 15.8404C147.706 15.8404 146.978 15.6934 146.404 15.3994C145.83 15.1054 145.403 14.7204 145.123 14.2444C144.843 13.7544 144.703 13.2224 144.703 12.6484C144.703 11.6404 145.095 10.8424 145.879 10.2544C146.663 9.66638 147.783 9.37238 149.239 9.37238H151.969V9.18338C151.969 8.37138 151.745 7.76238 151.297 7.35638C150.863 6.95038 150.296 6.74738 149.596 6.74738C148.98 6.74738 148.441 6.90138 147.979 7.20938C147.531 7.50338 147.258 7.94438 147.16 8.53238H144.934C145.004 7.77638 145.256 7.13238 145.69 6.60038C146.138 6.05438 146.698 5.64138 147.37 5.36138C148.056 5.06738 148.805 4.92038 149.617 4.92038C151.073 4.92038 152.2 5.30538 152.998 6.07538C153.796 6.83138 154.195 7.86738 154.195 9.18338V15.5884H152.263L152.074 13.8034C151.78 14.3774 151.353 14.8604 150.793 15.2524C150.233 15.6444 149.498 15.8404 148.588 15.8404ZM149.029 14.0344C149.631 14.0344 150.135 13.8944 150.541 13.6144C150.961 13.3204 151.283 12.9354 151.507 12.4594C151.745 11.9834 151.892 11.4584 151.948 10.8844H149.47C148.588 10.8844 147.958 11.0384 147.58 11.3464C147.216 11.6544 147.034 12.0394 147.034 12.5014C147.034 12.9774 147.209 13.3554 147.559 13.6354C147.923 13.9014 148.413 14.0344 149.029 14.0344ZM161.306 15.8404C160.284 15.8404 159.367 15.6094 158.555 15.1474C157.757 14.6854 157.127 14.0484 156.665 13.2364C156.217 12.4104 155.993 11.4584 155.993 10.3804C155.993 9.30238 156.217 8.35738 156.665 7.54538C157.127 6.71938 157.757 6.07538 158.555 5.61338C159.367 5.15138 160.284 4.92038 161.306 4.92038C162.594 4.92038 163.672 5.25638 164.54 5.92838C165.422 6.60038 165.989 7.51038 166.241 8.65838H163.91C163.77 8.08438 163.462 7.63638 162.986 7.31438C162.51 6.99238 161.95 6.83138 161.306 6.83138C160.76 6.83138 160.256 6.97138 159.794 7.25138C159.332 7.51738 158.961 7.91638 158.681 8.44838C158.401 8.96638 158.261 9.61038 158.261 10.3804C158.261 11.1504 158.401 11.8014 158.681 12.3334C158.961 12.8514 159.332 13.2504 159.794 13.5304C160.256 13.8104 160.76 13.9504 161.306 13.9504C161.95 13.9504 162.51 13.7894 162.986 13.4674C163.462 13.1454 163.77 12.6904 163.91 12.1024H166.241C166.003 13.2224 165.443 14.1254 164.561 14.8114C163.679 15.4974 162.594 15.8404 161.306 15.8404ZM172.398 15.5884C171.376 15.5884 170.564 15.3434 169.962 14.8534C169.36 14.3494 169.059 13.4604 169.059 12.1864V7.04138H167.274V5.17238H169.059L169.332 2.52638H171.285V5.17238H174.225V7.04138H171.285V12.1864C171.285 12.7604 171.404 13.1594 171.642 13.3834C171.894 13.5934 172.321 13.6984 172.923 13.6984H174.12V15.5884H172.398ZM176.982 15.7144C176.562 15.7144 176.212 15.5814 175.932 15.3154C175.666 15.0354 175.533 14.7064 175.533 14.3284C175.533 13.9364 175.666 13.6074 175.932 13.3414C176.212 13.0614 176.562 12.9214 176.982 12.9214C177.402 12.9214 177.745 13.0614 178.011 13.3414C178.277 13.6074 178.41 13.9364 178.41 14.3284C178.41 14.7064 178.277 15.0354 178.011 15.3154C177.745 15.5814 177.402 15.7144 176.982 15.7144ZM181.115 15.7144C180.695 15.7144 180.345 15.5814 180.065 15.3154C179.799 15.0354 179.666 14.7064 179.666 14.3284C179.666 13.9364 179.799 13.6074 180.065 13.3414C180.345 13.0614 180.695 12.9214 181.115 12.9214C181.535 12.9214 181.878 13.0614 182.144 13.3414C182.41 13.6074 182.543 13.9364 182.543 14.3284C182.543 14.7064 182.41 15.0354 182.144 15.3154C181.878 15.5814 181.535 15.7144 181.115 15.7144ZM185.247 15.7144C184.827 15.7144 184.477 15.5814 184.197 15.3154C183.931 15.0354 183.798 14.7064 183.798 14.3284C183.798 13.9364 183.931 13.6074 184.197 13.3414C184.477 13.0614 184.827 12.9214 185.247 12.9214C185.667 12.9214 186.01 13.0614 186.276 13.3414C186.542 13.6074 186.675 13.9364 186.675 14.3284C186.675 14.7064 186.542 15.0354 186.276 15.3154C186.01 15.5814 185.667 15.7144 185.247 15.7144Z" fill="white"/>
</svg>
